<!-- Generator: Adobe Illustrator 28.2.0, SVG Export Plug-In . SVG Version: 6.00 Build 0)  -->
<svg version="1.1" id="Logo" xmlns="http://www.w3.org/2000/svg" xmlns:xlink="http://www.w3.org/1999/xlink" x="0px"
	y="0px" viewBox="0 0 1440 720" style="enable-background:new 0 0 1440 720;" xml:space="preserve">
	<style type="text/css">
		.st0 {
			fill: #4DC4F1;
		}

		.st1 {
			fill: #368CAD;
		}

		.st2 {
			fill: #ADDEF8;
		}

		.st3 {
			fill: url(#SVGID_00000081643018527283204030000006554130614047297961_);
		}

		.st4 {
			fill: url(#SVGID_00000134226585035583069350000000863054383888657070_);
		}

		.st5 {
			fill: #ED1C26;
		}

		.st6 {
			fill: url(#SVGID_00000124125513157187607220000004551270044394923930_);
		}

		.st7 {
			fill: #C2151D;
		}

		.st8 {
			fill: #F6977B;
		}

		.st9 {
			fill: #FFFFFF;
		}
	</style>
	<g>
		<g>
			<g>
				<defs>
					<path id="SVGID_1_" d="M181.56,330.46c-3.01,14.46-2.12,29.7,2.33,43.77c3.59,11.36,12.41,31.33,23.83,36.18
					c-7.18-20.96-14.53-41.59-13.19-64.16c0.99-16.59,7.11-33.51,18.71-45.65c0.66-0.69,2.99-2.53,6.17-4.9
					c10.05-7.48,28.61-20.14,29.76-17.74c-2.89-6.09-5.78-12.18-8.67-18.27C211.43,271.56,187.94,299.79,181.56,330.46" />
				</defs>

				<linearGradient id="SVGID_00000056409340366013740010000007460130990900032164_"
					gradientUnits="userSpaceOnUse" x1="214.4884" y1="286.7775" x2="214.4884" y2="391.4085">
					<stop offset="0" style="stop-color:#FFFFFF" />
					<stop offset="0.5361" style="stop-color:#4FBDC8" />
					<stop offset="1" style="stop-color:#1E6F91" />
				</linearGradient>
				<use xlink:href="#SVGID_1_"
					style="overflow:visible;fill:url(#SVGID_00000056409340366013740010000007460130990900032164_);" />
				<clipPath id="SVGID_00000067933968744246248360000010491548297636276134_">
					<use xlink:href="#SVGID_1_" style="overflow:visible;" />
				</clipPath>
			</g>
			<g>
				<defs>
					<path id="SVGID_00000160874743211412130520000017769117881972241826_" d="M186.58,372.61c7.38,53.72,72.07,90.3,72.07,90.3
					l0.04-4.95c-90.8-97.78-28.55-163.71-28.55-163.71C176.37,320.73,186.58,372.61,186.58,372.61" />
				</defs>

				<linearGradient id="SVGID_00000103224516501589512490000014752584119923783818_"
					gradientUnits="userSpaceOnUse" x1="222.2429" y1="300.9565" x2="222.2429" y2="461.6068">
					<stop offset="0" style="stop-color:#FFFFFF" />
					<stop offset="0.5361" style="stop-color:#4FBDC8" />
					<stop offset="1" style="stop-color:#1E6F91" />
				</linearGradient>

				<use xlink:href="#SVGID_00000160874743211412130520000017769117881972241826_"
					style="overflow:visible;fill:url(#SVGID_00000103224516501589512490000014752584119923783818_);" />
				<clipPath id="SVGID_00000170968027007610113000000012986312045180964254_">
					<use xlink:href="#SVGID_00000160874743211412130520000017769117881972241826_"
						style="overflow:visible;" />
				</clipPath>
			</g>
			<path class="st0" d="M247.6,263.49l9.75,16.6c0,0-1.1,0.59-2.4,1.2c-0.65,0.31-1.45,0.68-2.4,1.12c-0.93,0.45-2,0.96-3.21,1.53
			c-4.76,2.33-11.6,5.57-18.61,10.27c-3.49,2.38-7,5.14-10.33,8.62c-0.82,0.89-1.69,1.75-2.49,2.72c-0.41,0.48-0.83,0.95-1.24,1.44
			c-0.4,0.5-0.81,1.01-1.22,1.52c-0.83,1-1.62,2.09-2.42,3.18l-0.61,0.82l-0.57,0.83c-0.38,0.55-0.77,1.11-1.15,1.67
			c-3.05,4.5-5.77,9.47-7.98,14.74c-0.27,0.66-0.55,1.32-0.82,1.99c-0.24,0.67-0.49,1.35-0.73,2.02c-0.52,1.35-0.91,2.73-1.33,4.11
			c-0.1,0.35-0.22,0.69-0.31,1.04l-0.26,1.05l-0.53,2.11c-0.16,0.7-0.28,1.42-0.42,2.13l-0.21,1.07c-0.07,0.36-0.14,0.71-0.18,1.07
			c-0.87,5.72-0.97,11.55-0.15,17.19c0.83,5.63,2.68,11.07,5.04,16.18c2.36,5.12,5.18,9.9,8,14.39c2.83,4.49,5.62,8.7,8.22,12.56
			c5.22,7.71,9.77,14.01,13.01,18.38c1.62,2.19,2.91,3.89,3.79,5.06c0.88,1.16,1.36,1.78,1.36,1.78s-0.53-0.57-1.52-1.64
			c-0.99-1.07-2.44-2.65-4.27-4.67c-3.65-4.05-8.81-9.89-14.78-17.1c-2.98-3.61-6.17-7.54-9.48-11.8
			c-3.29-4.27-6.69-8.91-9.74-14.13c-3.04-5.2-5.73-11.05-7.32-17.44c-1.57-6.37-2.12-13.09-1.76-19.74
			c0.01-0.42,0.04-0.83,0.08-1.25l0.12-1.24c0.08-0.83,0.14-1.66,0.25-2.48l0.36-2.46l0.18-1.23c0.06-0.41,0.16-0.81,0.23-1.22
			c0.33-1.62,0.63-3.25,1.06-4.84c0.2-0.8,0.41-1.6,0.61-2.39c0.24-0.79,0.47-1.57,0.71-2.35c1.92-6.25,4.46-12.18,7.44-17.66
			c0.38-0.68,0.75-1.36,1.13-2.03c0.19-0.34,0.38-0.67,0.57-1.01c0.2-0.33,0.39-0.65,0.59-0.97c0.78-1.29,1.54-2.58,2.38-3.84
			c0.41-0.63,0.82-1.26,1.22-1.88c0.43-0.61,0.86-1.23,1.29-1.83c0.83-1.23,1.77-2.39,2.66-3.55c3.63-4.63,7.74-8.6,11.66-11.86
			c3.94-3.27,7.7-5.89,11.01-8.09c3.32-2.18,6.22-3.98,8.61-5.43c1.19-0.72,2.26-1.36,3.18-1.92c0.92-0.54,1.71-1.01,2.35-1.39
			C247.3,263.67,247.6,263.49,247.6,263.49" />
			<path class="st1" d="M244.14,257.62l6.25,19.02c0,0-0.76,0.23-2.18,0.66c-0.36,0.11-0.75,0.23-1.19,0.36
			c-0.22,0.07-0.45,0.13-0.69,0.21c-0.23,0.08-0.48,0.17-0.73,0.26c-1.01,0.36-2.18,0.76-3.47,1.24c-0.64,0.26-1.31,0.53-2.01,0.82
			c-0.35,0.14-0.71,0.29-1.08,0.44c-0.19,0.08-0.37,0.15-0.56,0.23c-0.18,0.09-0.37,0.17-0.55,0.26c-1.48,0.72-3.14,1.42-4.79,2.36
			c-0.42,0.23-0.85,0.45-1.28,0.69c-0.22,0.12-0.43,0.23-0.65,0.35c-0.21,0.13-0.42,0.26-0.64,0.39c-0.86,0.53-1.74,1.07-2.65,1.62
			c-0.87,0.6-1.76,1.22-2.68,1.86c-0.23,0.16-0.46,0.32-0.69,0.48c-0.22,0.17-0.44,0.35-0.66,0.53c-0.44,0.35-0.89,0.71-1.35,1.07
			c-3.6,2.92-7.17,6.47-10.31,10.74c-3.15,4.26-5.85,9.25-7.81,14.82l-0.38,1.04c-0.13,0.34-0.22,0.73-0.34,1.09
			c-0.22,0.74-0.44,1.48-0.66,2.22l-0.33,1.12l-0.27,1.14c-0.18,0.76-0.37,1.53-0.55,2.29c-0.2,0.76-0.34,1.55-0.48,2.33
			c-0.15,0.78-0.3,1.57-0.45,2.36c-0.08,0.39-0.14,0.79-0.19,1.19l-0.17,1.2c-0.11,0.8-0.22,1.6-0.34,2.41
			c-0.76,6.46-0.84,13.16-0.34,19.87c1,13.42,4.44,26.78,9.29,38.71c4.83,11.97,10.85,22.6,16.53,31.37
			c2.84,4.39,5.57,8.35,8.09,11.78c1.24,1.74,2.46,3.32,3.55,4.8c1.13,1.47,2.16,2.81,3.09,4.03c1.9,2.41,3.4,4.3,4.44,5.57
			c1.04,1.28,1.59,1.96,1.59,1.96s-0.61-0.63-1.76-1.81c-1.16-1.17-2.82-2.92-4.93-5.16c-1.04-1.13-2.2-2.38-3.45-3.75
			c-1.23-1.39-2.59-2.86-3.99-4.49c-2.83-3.22-5.93-6.95-9.2-11.12c-6.52-8.34-13.62-18.59-19.74-30.55
			c-6.14-11.94-11.07-25.69-13.46-40.13c-1.2-7.21-1.77-14.59-1.57-21.9c0.04-0.91,0.09-1.83,0.13-2.74l0.07-1.37
			c0.02-0.45,0.05-0.91,0.1-1.36c0.09-0.91,0.18-1.81,0.26-2.71c0.09-0.9,0.17-1.8,0.31-2.7c0.13-0.89,0.26-1.79,0.4-2.68
			c0.07-0.44,0.13-0.89,0.2-1.33c0.09-0.44,0.18-0.88,0.26-1.32c0.18-0.88,0.35-1.75,0.53-2.63c0.1-0.44,0.16-0.87,0.28-1.31
			c0.12-0.44,0.23-0.88,0.35-1.32c1.77-7.03,4.6-13.64,8.1-19.42c3.5-5.79,7.65-10.74,11.87-14.84c0.53-0.51,1.06-1.01,1.59-1.5
			c0.26-0.25,0.52-0.49,0.78-0.74c0.27-0.24,0.54-0.46,0.81-0.69c1.07-0.9,2.12-1.79,3.16-2.64c1.07-0.8,2.11-1.58,3.13-2.33
			c0.25-0.19,0.51-0.38,0.76-0.56c0.26-0.17,0.51-0.34,0.77-0.51c0.51-0.34,1.01-0.67,1.51-1c1.96-1.35,3.9-2.42,5.66-3.46
			c0.22-0.13,0.44-0.26,0.66-0.38c0.22-0.12,0.44-0.23,0.66-0.34c0.43-0.22,0.86-0.45,1.27-0.66c0.83-0.43,1.63-0.84,2.38-1.23
			c1.52-0.73,2.9-1.34,4.1-1.89c0.3-0.14,0.59-0.27,0.86-0.39c0.28-0.11,0.55-0.22,0.81-0.32c0.51-0.21,0.98-0.39,1.4-0.56
			C243.24,257.98,244.14,257.62,244.14,257.62" />
			<g>
				<path class="st0" d="M236.08,264.05c0,0,0.27-1.09,0.7-1.33c0.44-0.23,1.01,0.41,1.37,3.82c0,0,0.35,1.34,0.67,2.69
				c0.32,1.35,0.6,2.7,0.6,2.7s0.46,0.96,0.86,1.94c0.41,0.99,0.74,1.99,0.74,1.99s-0.05,1.01-0.07,2.01
				c-0.03,1-0.03,2.01-0.03,2.01s-0.04,0.02-0.15,0.06c-0.11,0.03-0.32,0.12-0.64,0.23c-0.16,0.05-0.35,0.11-0.58,0.19
				c-0.23,0.09-0.51,0.19-0.82,0.3c-0.31,0.1-0.68,0.26-1.09,0.42c-0.41,0.15-0.88,0.37-1.4,0.6c-0.26,0.11-0.54,0.24-0.83,0.39
				c-0.29,0.14-0.6,0.29-0.92,0.44c-0.65,0.34-1.35,0.7-2.13,1.14c-1.55,0.87-3.37,1.98-5.48,3.41c-2.11,1.43-4.51,3.18-7.19,5.33
				c-2.68,2.15-5.67,4.69-8.88,7.68c0,0-0.58,0.65-1.65,1.85c-0.13,0.14-0.26,0.3-0.41,0.46c-0.08,0.08-0.05,0.08-0.07,0.12
				c-0.01,0.03-0.02,0.06-0.03,0.09c-0.04,0.07-0.07,0.12-0.13,0.2c-0.07,0.1-0.15,0.2-0.23,0.31c-0.16,0.21-0.32,0.42-0.48,0.64
				c-0.34,0.44-0.69,0.92-1.08,1.42c-0.36,0.51-0.75,1.05-1.16,1.62c-3.24,4.53-7.4,10.92-10.45,18.62c0,0-0.18,0.43-0.52,1.25
				c-0.28,0.84-0.77,2.03-1.22,3.61c-0.5,1.57-0.96,3.51-1.38,5.76c-0.41,2.26-0.68,4.85-0.76,7.72c-0.16,5.74,0.67,12.64,2.9,20.01
				c2.21,7.37,5.79,15.16,10.27,22.7c4.49,7.54,9.82,14.84,15.35,21.49c2.77,3.33,5.56,6.5,8.35,9.47c0.17,0.18,1.42,2.36,1.35,2.27
				c-1.62-2.25-3.39-3.78-5.04-5.67c-3.74-4.25-7.29-8.66-10.49-12.95c-3.18-4.29-5.98-8.46-8.29-12.18
				c-2.3-3.72-4.11-6.99-5.41-9.46c-0.66-1.23-1.19-2.27-1.63-3.06c-0.41-0.8-0.73-1.35-0.93-1.62c0,0,0.12,0.29,0.35,0.82
				c0.12,0.27,0.26,0.6,0.43,0.99c0.18,0.39,0.39,0.83,0.62,1.34c0.91,2.01,2.31,4.86,4.19,8.25c3.72,6.78,9.59,15.61,16.48,24.08
				c3.41,4.26,7.07,8.42,10.65,12.32c0.87,0.94,2.45,2.68,3.08,3.75c0.06,0.1,3.57,4.99,3.56,4.97c-3.91-4.7-9.82-9.66-14.76-15.19
				c-7.21-8-13.88-16.67-18.68-23.83c-2.42-3.57-4.41-6.75-5.96-9.2c-1.54-2.45-2.67-4.17-3.38-4.83c0,0,0.11,0.27,0.34,0.77
				c0.23,0.5,0.56,1.23,0.99,2.17c0.9,1.86,2.18,4.53,3.93,7.69c1.74,3.16,3.92,6.81,6.47,10.67c2.55,3.86,5.46,7.92,8.57,11.95
				c6.22,8.06,13.26,15.94,19.2,22.17c5.92,6.25,10.69,10.93,12.11,12.95c0,0-2.77-2.54-5.87-5.45c-3.11-2.9-6.5-6.2-8.09-7.42
				l2.31,2.64c1.17,1.31,2.35,2.62,2.35,2.62s-0.52-0.47-1.31-1.17c-0.79-0.7-1.83-1.65-2.87-2.6c-1.04-0.95-2.06-1.92-2.83-2.64
				c-0.76-0.73-1.27-1.22-1.27-1.22s-1.08-1.23-2.13-2.47c-0.53-0.62-1.05-1.24-1.44-1.71c-0.39-0.47-0.65-0.78-0.65-0.78
				s2.77,3.44,5.72,6.97c2.94,3.54,6.05,7.18,6.21,7.95c0,0-2.68-3.15-5.47-5.79c-2.71-2.57-5.81-5.45-11.46-11.11
				c0,0-0.75-0.92-2.21-2.69c-1.46-1.77-3.6-4.41-6.33-7.89c-2.72-3.49-6.03-7.82-9.63-13.09c-3.61-5.27-7.56-11.48-11.3-18.81
				c-3.73-7.32-7.27-15.81-9.38-25.63c-1-4.91-1.68-10.14-1.62-15.64c-0.02-1.37,0.08-2.76,0.13-4.16c0.06-0.7,0.12-1.4,0.19-2.11
				c0.05-0.71,0.15-1.41,0.24-2.12c0.35-2.85,0.94-5.73,1.7-8.61c1.52-5.79,3.91-11.57,7.02-17.19c0.8-1.38,1.59-2.8,2.48-4.16
				c0.85-1.4,1.79-2.73,2.73-4.1c0.46-0.69,0.98-1.33,1.47-2.01c0.5-0.66,0.98-1.36,1.51-2c0.52-0.65,1.05-1.31,1.57-1.97l0.46-0.56
				c0.19-0.23,0.41-0.43,0.61-0.64l0.9-0.93c2.34-2.42,4.76-4.77,7.3-7.11c2.54-2.34,5.2-4.65,8.03-6.91
				c2.85-2.26,5.85-4.48,9.25-6.56c0.83-0.53,1.73-1.02,2.62-1.53c0.93-0.49,1.83-0.99,2.82-1.45c0.96-0.47,2.01-0.91,3.06-1.34
				C233.76,264.79,234.85,264.38,236.08,264.05" />
				<path class="st2" d="M224.69,411.27c-2.33-2.64-4.47-5.17-6.53-7.73c-3.4-4.19-6.58-8.53-9.47-12.91
				c-3.37-5.11-6.23-10.11-8.5-14.88c-1.21-2.55-2.31-5.12-3.26-7.64c-0.86-2.27-1.64-4.69-2.39-7.42c-0.69-2.48-1.13-4.88-1.48-6.9
				l-0.04-0.28c-0.07-0.45-0.13-0.9-0.19-1.34c-0.05-0.33-0.09-0.67-0.12-0.99c-0.02-0.19-0.04-0.38-0.06-0.57
				c-0.1-0.79-0.15-1.54-0.19-2.28c-0.01-0.22-0.03-0.44-0.04-0.66c-0.17-3.06-0.08-6.06,0.27-8.91c0.04-0.49,0.11-0.93,0.17-1.32
				l0.01-0.08c0.03-0.22,0.07-0.42,0.09-0.61c0.02-0.15,0.04-0.29,0.06-0.42c0.04-0.29,0.07-0.49,0.11-0.64
				c0.03-0.14,0.04-0.21,0.04-0.21c0.22-1.89,0.61-3.9,1.26-6.53c0.09-0.32,0.18-0.64,0.27-0.95c0.21-0.75,0.43-1.52,0.7-2.26
				c0.07-0.2,0.13-0.4,0.2-0.59c0.11-0.33,0.22-0.67,0.35-1c0.19-0.49,0.38-0.97,0.56-1.46l0.05-0.12
				c1.58-3.93,3.77-7.95,6.51-11.97c0.39-0.57,0.81-1.14,1.21-1.69c0.26-0.35,0.52-0.71,0.78-1.07c0.4-0.5,0.8-1.01,1.19-1.5
				l0.91-1.15c0.37-0.43,0.73-0.86,1.1-1.28l0.54-0.64c0.08-0.1,0.12-0.14,0.16-0.19l0.04-0.05c0.02-0.03,0.03-0.05,0.04-0.06
				c0.01-0.01,0.01-0.02,0.02-0.03c0,0,0-0.01,0.01-0.01c0-0.01,0.01-0.02,0.02-0.03c0.01-0.01,0.02-0.02,0.05-0.06l0.37-0.36
				l0.6-0.58c0.41-0.39,0.82-0.77,1.23-1.15c3.18-2.94,6.44-5.71,9.69-8.23c3.05-2.35,5.96-4.37,8.63-6
				c2.51-1.51,4.84-2.72,6.74-3.48c2.1-0.85,3.44-1.17,4.05-1.29c0.3-0.08,0.52-0.11,0.71-0.13c0.09-0.01,0.17-0.02,0.24-0.04
				c0.21-0.04,0.32-0.06,0.32-0.06l0.01,0.04c0,0-0.11,0.02-0.32,0.05c-0.07,0.01-0.15,0.02-0.25,0.04c-0.18,0.02-0.4,0.05-0.7,0.13
				c-0.61,0.11-1.95,0.43-4.04,1.28c-1.9,0.77-4.23,1.97-6.73,3.48c-2.67,1.62-5.58,3.64-8.63,5.99c-3.25,2.51-6.51,5.28-9.69,8.22
				c-0.41,0.38-0.82,0.77-1.23,1.15l-0.6,0.58l-0.37,0.36c-0.02,0.02-0.03,0.03-0.04,0.04l0,0l-0.01,0.01
				c-0.01,0.01-0.01,0.02-0.02,0.02c0,0.01-0.01,0.01-0.01,0.01c-0.01,0.01-0.01,0.02-0.02,0.03c-0.01,0.01-0.02,0.03-0.04,0.06
				l-0.04,0.05c-0.04,0.05-0.07,0.09-0.16,0.19l-0.54,0.64c-0.36,0.42-0.73,0.85-1.09,1.28l-0.91,1.15c-0.4,0.5-0.79,1-1.19,1.5
				c-0.25,0.36-0.52,0.72-0.78,1.07c-0.4,0.55-0.82,1.12-1.21,1.69c-2.74,4.01-4.92,8.03-6.5,11.96l-0.05,0.12
				c-0.19,0.49-0.38,0.97-0.56,1.46c-0.14,0.33-0.25,0.67-0.35,1c-0.06,0.2-0.13,0.4-0.2,0.6c-0.27,0.74-0.49,1.52-0.7,2.26
				c-0.09,0.31-0.18,0.63-0.27,0.95c-0.65,2.62-1.03,4.64-1.26,6.52c0,0-0.02,0.08-0.04,0.22c-0.03,0.14-0.06,0.35-0.11,0.63
				c-0.02,0.13-0.04,0.27-0.06,0.42c-0.03,0.18-0.06,0.39-0.09,0.61l-0.01,0.08c-0.06,0.39-0.13,0.82-0.17,1.32
				c-0.36,2.85-0.45,5.84-0.27,8.9c0.02,0.22,0.03,0.44,0.04,0.66c0.05,0.73,0.09,1.49,0.19,2.28c0.02,0.19,0.04,0.38,0.06,0.57
				c0.03,0.32,0.06,0.65,0.12,0.99c0.06,0.44,0.13,0.89,0.19,1.34l0.04,0.28c0.34,2.02,0.79,4.42,1.48,6.89
				c0.74,2.72,1.52,5.15,2.39,7.41c0.96,2.52,2.05,5.09,3.26,7.64c5.65,11.86,13.69,22.49,17.97,27.78
				c2.06,2.56,4.19,5.09,6.53,7.73L224.69,411.27z" />
				<path class="st0" d="M200.32,376.02c-0.05-0.13-0.11-0.29-0.18-0.45c-0.13-0.33-0.3-0.75-0.5-1.22
				c-0.12-0.29-0.26-0.61-0.41-0.95l-0.09-0.2c-0.17-0.42-0.35-0.87-0.55-1.35c-0.96-2.32-1.84-4.67-2.6-6.99
				c-1-3.03-1.79-5.99-2.36-8.82c-0.65-3.23-1.05-6.43-1.17-9.53c-0.25-5.59,0.48-11.62,2-16.56c0.08-0.27,0.15-0.53,0.23-0.79
				c0.05-0.16,0.11-0.32,0.16-0.47l0.09-0.27c0.16-0.48,0.32-0.94,0.46-1.37l0.27-0.7c0.22-0.56,0.41-1.05,0.58-1.49
				c0.53-1.2,0.83-1.87,0.83-1.87c1.09-2.22,2.29-4.6,3.83-7.14c1.66-2.74,3.51-5.45,5.52-8.06c0.22-0.27,0.44-0.56,0.65-0.83
				c0.32-0.41,0.64-0.83,0.98-1.24c0.29-0.34,0.57-0.68,0.86-1.02l0.65-0.77c0.05-0.06,0.07-0.09,0.09-0.12
				c0.01-0.02,0.02-0.03,0.04-0.05c0.02-0.03,0.02-0.04,0.02-0.05c0-0.02,0.01-0.03,0.03-0.07l0.47-0.48l0.99-0.97
				c0.56-0.54,1.3-1.25,2.05-1.94c2.78-2.59,5.6-5.04,8.39-7.29c2.73-2.21,5.41-4.17,7.94-5.84c2.34-1.53,4.61-2.81,6.56-3.72
				c1.87-0.87,3.29-1.32,4.16-1.55c0.34-0.1,0.6-0.15,0.81-0.19c0.08-0.02,0.15-0.03,0.21-0.04c0.23-0.05,0.35-0.08,0.35-0.08
				l0.01,0.04c0,0-0.12,0.02-0.35,0.08c-0.06,0.01-0.13,0.03-0.21,0.04c-0.21,0.04-0.46,0.09-0.8,0.19
				c-0.87,0.22-2.29,0.67-4.16,1.55c-1.95,0.91-4.22,2.19-6.56,3.72c-2.54,1.67-5.21,3.63-7.94,5.84c-2.79,2.25-5.61,4.7-8.39,7.29
				c-0.75,0.69-1.49,1.4-2.05,1.94l-0.99,0.97l-0.47,0.47c-0.02,0.03-0.02,0.04-0.02,0.05c0,0.02-0.01,0.03-0.03,0.07
				c-0.02,0.02-0.03,0.04-0.04,0.05c-0.02,0.03-0.04,0.06-0.09,0.12l-0.65,0.77c-0.29,0.34-0.57,0.68-0.86,1.02
				c-0.34,0.41-0.67,0.83-0.98,1.24c-0.21,0.27-0.43,0.55-0.65,0.83c-2.01,2.61-3.86,5.32-5.52,8.06c-1.54,2.54-2.73,4.92-3.83,7.13
				c0,0-0.3,0.68-0.82,1.87c-0.17,0.43-0.36,0.93-0.58,1.48l-0.27,0.7c-0.14,0.43-0.3,0.89-0.46,1.37l-0.09,0.27
				c-0.05,0.16-0.11,0.31-0.16,0.47c-0.07,0.25-0.15,0.52-0.23,0.79c-1.52,4.93-2.25,10.96-2,16.55c0.13,3.09,0.52,6.29,1.17,9.52
				c0.57,2.82,1.36,5.79,2.36,8.81c0.76,2.32,1.64,4.67,2.6,6.99c0.19,0.48,0.38,0.93,0.55,1.35l0.09,0.2
				c0.15,0.34,0.28,0.66,0.4,0.95c0.2,0.47,0.37,0.88,0.5,1.22c0.07,0.17,0.13,0.32,0.18,0.45L200.32,376.02z" />
				<path class="st0" d="M241.22,437.18c-0.03-0.03-0.06-0.05-0.09-0.08c-2.85-2.66-5.42-5.12-7.85-7.54
				c-6.6-6.53-13.12-13.74-18.36-20.31c-2.85-3.55-5.51-7.13-7.92-10.62c-2.15-3.12-4.16-6.26-5.97-9.35
				c-1.7-2.89-2.93-5.22-3.66-6.66c-0.25-0.49-0.46-0.91-0.64-1.26l-0.3-0.6c-0.2-0.43-0.31-0.66-0.31-0.66l0.04-0.02
				c0,0,0.11,0.23,0.31,0.66l0.3,0.6c0.18,0.35,0.39,0.78,0.64,1.26c0.73,1.44,1.96,3.76,3.66,6.66c1.81,3.08,3.81,6.23,5.97,9.34
				c2.41,3.49,5.07,7.06,7.92,10.62c5.24,6.56,11.76,13.77,18.36,20.3c2.43,2.42,5,4.88,7.85,7.54c0.03,0.03,0.06,0.05,0.09,0.08
				L241.22,437.18z" />
				<path class="st2" d="M228.48,437.82c-0.42-0.5-1.35-1.48-2.63-2.84c-2.02-2.13-5.07-5.35-8.53-9.24
				c-4.88-5.49-11.99-14-18.15-23.3c-2.98-4.47-5.61-8.86-7.82-13.04c-2.1-3.96-4.02-8.06-5.54-11.87l-0.52-1.3
				c-0.1-0.26-0.19-0.52-0.29-0.77l-0.32-0.85c-0.25-0.68-0.49-1.32-0.7-1.95c-0.25-0.73-0.48-1.41-0.69-2.05
				c-0.13-0.42-0.25-0.83-0.37-1.2l-0.17-0.55c-0.27-0.84-0.46-1.56-0.6-2.08c-0.04-0.14-0.07-0.26-0.1-0.38
				c-0.15-0.57-0.24-0.87-0.24-0.87l0.04-0.01c0,0,0.08,0.3,0.24,0.87c0.03,0.12,0.07,0.24,0.1,0.38c0.14,0.52,0.33,1.24,0.6,2.08
				l0.17,0.55c0.11,0.38,0.24,0.78,0.37,1.2c0.21,0.63,0.44,1.31,0.69,2.05c0.2,0.62,0.44,1.26,0.69,1.94l0.32,0.85
				c0.09,0.25,0.19,0.51,0.29,0.77l0.52,1.3c1.52,3.81,3.44,7.91,5.54,11.86c2.21,4.18,4.84,8.57,7.82,13.04
				c6.15,9.3,13.26,17.81,18.14,23.3c3.46,3.89,6.51,7.11,8.53,9.24c1.28,1.35,2.21,2.33,2.63,2.84L228.48,437.82z" />
			</g>
			<g>
				<defs>
					<path id="SVGID_00000044865893697823364780000010347298739455267224_" d="M181.68,365.79c-11.54-76.03,75.66-85.72,75.66-85.72
					l-13.09-22.61C159.17,283.62,181.68,365.79,181.68,365.79" />
				</defs>

				<linearGradient id="SVGID_00000080913369366127205330000000570808448716064407_"
					gradientUnits="userSpaceOnUse" x1="251.7501" y1="311.6285" x2="198.9804" y2="311.6285">
					<stop offset="0" style="stop-color:#37003F" />
					<stop offset="0.1552" style="stop-color:#3B0948" />
					<stop offset="0.4643" style="stop-color:#403260" />
					<stop offset="0.8948" style="stop-color:#316388" />
					<stop offset="1" style="stop-color:#1E6F91" />
				</linearGradient>

				<use xlink:href="#SVGID_00000044865893697823364780000010347298739455267224_"
					style="overflow:visible;fill:url(#SVGID_00000080913369366127205330000000570808448716064407_);" />
				<clipPath id="SVGID_00000067219560496513130760000018261741078447593092_">
					<use xlink:href="#SVGID_00000044865893697823364780000010347298739455267224_"
						style="overflow:visible;" />
				</clipPath>
			</g>
		</g>
	</g>
	<g>

		<linearGradient id="SVGID_00000052817576218284788980000013849901586049910168_" gradientUnits="userSpaceOnUse"
			x1="292.8026" y1="405.3256" x2="292.8026" y2="278.1509">
			<stop offset="0" style="stop-color:#A21D1E" />
			<stop offset="0.3168" style="stop-color:#E81C23" />
			<stop offset="0.3324" style="stop-color:#E82826" />
			<stop offset="0.5247" style="stop-color:#F07C5E" />
			<stop offset="0.6942" style="stop-color:#F7B097" />
			<stop offset="0.8346" style="stop-color:#FCD9C9" />
			<stop offset="0.9406" style="stop-color:#FEF2EC" />
			<stop offset="1" style="stop-color:#FFFFFF" />
		</linearGradient>
		<path style="fill:url(#SVGID_00000052817576218284788980000013849901586049910168_);" d="M258.19,403.61l-0.01-0.12l18.69-12.6
		c0,0-24.11-67.69,12.4-92.43l0.09-0.22c9.2-11.69,25.85-17.47,38.79-12.19c13.53,5.52,14.71,6.25,14.71,6.25
		c-9.51-9.92-25.49-15.16-39.81-13.99c-14.94,1.22-29.13,6.36-39.82,16.98c-19.45,19.32-23.61,49.65-18.5,75.47
		c2.3,11.62,5.53,23.62,10.49,34.57L258.19,403.61z" />

		<linearGradient id="SVGID_00000136373397734101332590000016114560873533892276_" gradientUnits="userSpaceOnUse"
			x1="323.4847" y1="473.2419" x2="323.4847" y2="308.3833">
			<stop offset="0" style="stop-color:#A21D1E" />
			<stop offset="0.3168" style="stop-color:#E81C23" />
			<stop offset="0.3324" style="stop-color:#E82826" />
			<stop offset="0.5247" style="stop-color:#F07C5E" />
			<stop offset="0.6942" style="stop-color:#F7B097" />
			<stop offset="0.8346" style="stop-color:#FCD9C9" />
			<stop offset="0.9406" style="stop-color:#FEF2EC" />
			<stop offset="1" style="stop-color:#FFFFFF" />
		</linearGradient>
		<path style="fill:url(#SVGID_00000136373397734101332590000016114560873533892276_);" d="M351.09,356.79
		c3.38,60.47-71.71,112.38-71.71,112.38v5.03c0,0,37.82-16.51,65.35-50.65c5.96-8.01,11.01-16.79,14.88-26.27
		c7.19-17.64,10.45-37.82,5.8-56.41c-3.19-12.75-10.03-24.99-20.72-31.6c-4.28-2.65-11.17-4.69-17.72-4.69
		c-4.92,0-9.63,1.16-12.92,4.08C328.88,308.54,348.87,316.95,351.09,356.79z" />
		<path class="st5" d="M249.75,388.58c1.88,6.03,4.32,10.46,6.1,13.3c0.22,0.36,0.42,0.7,0.62,1.02c0.2,0.31,0.4,0.59,0.58,0.86
		c0.09,0.14,0.17,0.25,0.26,0.37l15.67-9.05c-0.09-0.12-0.24-0.33-0.48-0.63c-0.19-0.25-0.42-0.56-0.7-0.92
		c-0.14-0.18-0.3-0.38-0.45-0.6c-0.15-0.22-0.3-0.45-0.47-0.71c-1.37-1.97-3.21-4.96-4.74-9.17c-0.19-0.53-0.39-1.07-0.58-1.63
		c-0.17-0.57-0.34-1.16-0.52-1.76c-0.2-0.59-0.31-1.23-0.47-1.87c-0.16-0.64-0.32-1.3-0.43-1.99c-0.11-0.69-0.27-1.38-0.37-2.11
		c-0.1-0.73-0.19-1.48-0.29-2.24c-0.07-0.78-0.14-1.56-0.2-2.36c-0.07-0.8-0.08-1.64-0.13-2.48c-0.12-3.39-0.02-7.08,0.28-11.05
		c0.31-3.98,0.78-8.21,1.48-12.48c0.71-4.29,1.66-8.67,3.02-13.02c1.36-4.34,3.13-8.65,5.47-12.7c2.33-4.04,5.24-7.82,8.79-11.08
		c3.55-3.21,7.78-5.91,12.49-7.89c9.4-3.97,20.69-5,31.24-2.3c5.27,1.35,10.33,3.64,14.74,6.86c0.54,0.42,1.1,0.81,1.63,1.25
		c0.52,0.45,1.05,0.86,1.57,1.34c1.02,0.99,2.07,1.97,3.09,2.97c0.95,1.06,1.93,2.11,2.88,3.18c0.87,1.13,1.78,2.24,2.64,3.38
		c3.36,4.64,6.05,9.78,8,15.21c1.96,5.43,3.19,11.14,3.78,16.9c1.19,11.55-0.15,23.23-2.99,34.12c-1.43,5.45-3.21,10.73-5.32,15.75
		c-2.11,5.03-4.5,9.81-7.11,14.32c-2.61,4.5-5.42,8.73-8.4,12.62c-2.99,3.88-6.15,7.42-9.37,10.68c-1.6,1.64-3.23,3.18-4.82,4.69
		c-1.62,1.48-3.21,2.93-4.8,4.29c-1.57,1.39-3.16,2.67-4.68,3.94c-1.56,1.23-3.04,2.47-4.54,3.59c-5.92,4.58-11.28,8.32-15.77,11.28
		c-4.5,2.96-8.12,5.15-10.6,6.63c-2.5,1.45-3.83,2.22-3.83,2.22s1.37-0.71,3.93-2.04c2.55-1.36,6.27-3.39,10.91-6.15
		c4.64-2.76,10.19-6.26,16.35-10.59c1.55-1.07,3.11-2.24,4.73-3.41c1.59-1.22,3.26-2.43,4.9-3.76c1.67-1.3,3.34-2.69,5.05-4.11
		c1.04-0.9,2.09-1.82,3.15-2.76c9.58-9.25,18.88-20.34,26.27-33.29c1.08-2,2.13-4.04,3.13-6.14c2.43-5.12,4.55-10.54,6.3-16.19
		c1.75-5.65,3.13-11.54,3.99-17.62c0.86-6.07,1.2-12.33,0.84-18.66c-0.36-6.32-1.42-12.71-3.34-18.92
		c-1.92-6.21-4.71-12.23-8.33-17.74c-0.93-1.36-1.91-2.69-2.86-4.03c-1.03-1.29-2.09-2.55-3.14-3.82c-1.12-1.21-2.26-2.39-3.4-3.58
		c-0.58-0.59-1.24-1.16-1.86-1.74c-0.63-0.57-1.3-1.1-1.95-1.65c-5.31-4.27-11.45-7.39-17.84-9.35c-6.4-1.96-13.05-2.78-19.6-2.57
		c-6.55,0.21-13.01,1.44-19.06,3.67c-6.05,2.22-11.69,5.43-16.58,9.46c-4.85,4.04-8.86,8.8-12.05,13.78
		c-3.19,4.98-5.58,10.17-7.44,15.24c-1.85,5.08-3.17,10.08-4.19,14.86c-0.25,1.2-0.47,2.38-0.71,3.55c-0.23,1.17-0.4,2.33-0.61,3.48
		c-0.21,1.15-0.35,2.27-0.52,3.39c-0.17,1.11-0.31,2.23-0.44,3.33c-0.54,4.41-0.86,8.7-0.91,12.82c0.01,1.04-0.02,2.05,0.02,3.06
		c0.04,1.01,0.08,2,0.12,2.98c0.08,0.99,0.16,1.95,0.24,2.9c0.08,0.95,0.23,1.89,0.35,2.8
		C248.02,382.19,248.75,385.58,249.75,388.58z" />

		<linearGradient id="SVGID_00000140719813333954584660000008433875076419185545_" gradientUnits="userSpaceOnUse"
			x1="266.3828" y1="398.5569" x2="266.3828" y2="289.5157">
			<stop offset="0" style="stop-color:#690031" />
			<stop offset="1" style="stop-color:#EA2529" />
		</linearGradient>
		<path style="fill:url(#SVGID_00000140719813333954584660000008433875076419185545_);" d="M283.48,389.01
		c-0.82-1.25-5.75-9.19-7.87-21.87c-5.66-20.49-9.08-51.93,10.51-78.6c0,0-62.49,24.78-30.19,116.38L283.48,389.01z" />
		<path class="st7" d="M257.14,364.87c0.6,6.85,1.9,12.74,3.27,17.51c1.38,4.77,2.84,8.44,3.92,10.91c0.53,1.24,1,2.17,1.29,2.81
		c0.16,0.33,0.7,1.49,1.18,2.54l16.39-9.46l-0.44-0.96c0,0-0.13-0.24-0.39-0.72c-0.25-0.48-0.66-1.17-1.13-2.11
		c-0.95-1.87-2.27-4.69-3.6-8.45c-1.32-3.76-2.67-8.48-3.48-14.04c-0.23-1.39-0.36-2.83-0.53-4.31c-0.05-0.74-0.11-1.5-0.16-2.26
		c-0.07-0.76-0.06-1.54-0.1-2.32c-0.08-3.14,0.02-6.44,0.41-9.84c0.78-6.78,2.72-14,6.46-20.64c1.87-3.31,4.21-6.44,7.01-9.26
		c0.36-0.35,0.71-0.7,1.06-1.05c0.35-0.36,0.75-0.66,1.13-1c0.38-0.33,0.76-0.66,1.15-0.99c0.4-0.31,0.81-0.61,1.22-0.92
		c0.41-0.3,0.81-0.63,1.23-0.92c0.43-0.28,0.86-0.56,1.3-0.84c0.86-0.59,1.74-1.09,2.63-1.59c7.18-3.91,16.19-5.57,25.04-4.42
		c4.42,0.57,8.8,1.85,12.82,3.84c4.02,1.99,7.7,4.7,10.69,8.05l1.1,1.28c0.36,0.43,0.68,0.9,1.03,1.35l0.51,0.68
		c0.17,0.23,0.31,0.47,0.47,0.71l0.93,1.44l0.84,1.5c0.14,0.25,0.29,0.5,0.42,0.76l0.37,0.78c0.24,0.52,0.51,1.04,0.74,1.57
		l0.66,1.62c0.83,2.18,1.56,4.42,2.09,6.74c0.3,1.14,0.5,2.32,0.73,3.49c0.11,0.58,0.19,1.18,0.28,1.77
		c0.09,0.59,0.19,1.18,0.24,1.77c0.57,4.75,0.71,9.58,0.46,14.35c-0.22,4.77-0.79,9.48-1.65,14.07c-1.72,9.19-4.58,17.89-7.97,25.87
		c-3.38,7.99-7.25,15.31-11.1,21.89c-3.85,6.59-7.7,12.47-11.2,17.62c-3.5,5.15-6.67,9.57-9.29,13.2c-2.64,3.62-4.72,6.46-6.13,8.4
		c-1.21,1.64-1.93,2.62-2.12,2.89c0.01,0,0.01-0.01,0.02-0.01c0.22-0.27,0.99-1.2,2.27-2.75c1.52-1.86,3.76-4.57,6.61-8.04
		c2.83-3.48,6.25-7.72,10.06-12.68c3.8-4.97,8.01-10.65,12.28-17.08c4.28-6.43,8.63-13.63,12.58-21.63
		c3.95-7.99,7.45-16.85,9.82-26.42c1.18-4.78,2.08-9.75,2.61-14.83c0.55-5.07,0.71-10.28,0.39-15.57c-0.03-0.66-0.1-1.32-0.16-1.99
		c-0.07-0.66-0.11-1.33-0.2-1.99c-0.18-1.33-0.33-2.66-0.6-3.99c-0.45-2.67-1.13-5.33-1.97-7.96l-0.68-1.97
		c-0.23-0.65-0.52-1.3-0.78-1.94l-0.4-0.97c-0.14-0.32-0.3-0.64-0.45-0.95l-0.92-1.9l-1.05-1.85c-0.18-0.31-0.34-0.62-0.54-0.92
		l-0.59-0.89c-0.4-0.59-0.77-1.2-1.2-1.78l-1.31-1.71c-3.57-4.51-8.08-8.26-13.04-11.08c-4.96-2.83-10.37-4.75-15.89-5.8
		c-11.04-2.09-22.59-0.76-32.6,3.92c-1.24,0.59-2.48,1.22-3.63,1.9c-0.58,0.34-1.16,0.67-1.74,1.01c-0.57,0.35-1.12,0.73-1.68,1.1
		c-0.56,0.37-1.12,0.74-1.66,1.12c-0.53,0.4-1.06,0.81-1.59,1.21c-0.52,0.41-1.07,0.79-1.56,1.23c-0.5,0.43-1,0.87-1.49,1.3
		c-3.93,3.51-7.28,7.5-9.99,11.7c-2.71,4.2-4.8,8.59-6.4,12.95c-1.59,4.36-2.71,8.7-3.44,12.9c-0.73,4.2-1.09,8.26-1.21,12.11
		c-0.01,0.96-0.07,1.92-0.05,2.86c0.01,0.94,0.03,1.86,0.04,2.78C256.9,361.39,256.96,363.17,257.14,364.87z" />
		<path class="st5" d="M362.78,333.43c-0.55-3.52-1.56-7-2.91-10.28c-0.17-0.41-0.34-0.82-0.52-1.22c-0.17-0.41-0.35-0.81-0.56-1.2
		c-0.41-0.78-0.81-1.56-1.21-2.33c-0.41-0.76-0.9-1.48-1.35-2.2c-0.23-0.36-0.46-0.72-0.69-1.07c-0.23-0.36-0.49-0.68-0.74-1.02
		c-0.51-0.66-1.01-1.32-1.51-1.97c-0.52-0.63-1.07-1.22-1.6-1.82c-0.27-0.3-0.54-0.59-0.8-0.88c-0.26-0.3-0.56-0.55-0.84-0.83
		c-0.57-0.54-1.13-1.07-1.68-1.59c-0.56-0.52-1.16-0.97-1.73-1.45c-0.29-0.23-0.58-0.46-0.86-0.7c-0.28-0.23-0.57-0.46-0.87-0.66
		c-0.59-0.41-1.18-0.82-1.75-1.22c-0.29-0.2-0.58-0.4-0.87-0.59c-0.3-0.18-0.59-0.35-0.88-0.53c-0.59-0.35-1.17-0.69-1.74-1.03
		l-0.43-0.25l-0.44-0.22c-0.29-0.15-0.58-0.29-0.87-0.44c-0.58-0.29-1.14-0.57-1.7-0.85c-0.56-0.26-1.14-0.48-1.69-0.72
		c-4.46-1.86-8.57-2.85-11.99-3.38c-0.86-0.13-1.67-0.2-2.44-0.3c-0.77-0.08-1.49-0.17-2.16-0.18c-0.68-0.03-1.3-0.05-1.87-0.07
		c-0.57-0.02-1.09-0.04-1.56-0.01c-1.87,0.07-2.87,0.1-2.87,0.1c-1.1,0.1-2.19,0.24-3.27,0.37c-0.55,0.05-1.05,0.17-1.56,0.27
		c-0.51,0.1-1.02,0.2-1.52,0.3c-0.51,0.11-1.01,0.21-1.51,0.31c-0.5,0.14-0.99,0.27-1.48,0.41c-0.49,0.14-0.97,0.28-1.46,0.42
		c-0.48,0.14-0.97,0.27-1.43,0.45c-0.93,0.35-1.86,0.69-2.77,1.04c-0.46,0.16-0.9,0.37-1.33,0.57c-0.44,0.2-0.87,0.41-1.3,0.61
		c-0.43,0.2-0.86,0.41-1.28,0.61c-0.42,0.21-0.82,0.45-1.22,0.67c-0.8,0.46-1.59,0.91-2.37,1.36c-6.07,3.84-10.51,8.34-13.63,12.31
		c-3.13,4-5,7.5-6.25,9.88c-0.57,1.22-1.01,2.15-1.31,2.79c-0.15,0.32-0.25,0.56-0.31,0.73c-0.07,0.17-0.1,0.25-0.1,0.25
		c-0.37,0.82-0.74,1.63-1.11,2.43c-0.35,0.8-0.65,1.61-0.97,2.39c-0.16,0.39-0.31,0.78-0.46,1.17c-0.14,0.39-0.27,0.78-0.41,1.17
		c-0.26,0.77-0.53,1.53-0.78,2.29c-0.92,3.03-1.69,5.89-2.21,8.61c-1.09,5.43-1.5,10.22-1.6,14.38c-0.07,2.08,0,4.01,0.06,5.79
		c0.12,1.78,0.21,3.42,0.41,4.92c0.09,0.75,0.16,1.47,0.27,2.15c0.11,0.68,0.22,1.33,0.32,1.96c0.18,1.24,0.46,2.36,0.67,3.36
		c0.2,1.01,0.46,1.9,0.67,2.69c0.23,0.8,0.39,1.5,0.61,2.1c0.41,1.22,0.75,2.08,0.95,2.73c1.46,4.86,4.23,10.1,4.95,11.41
		l14.56-8.41c-1.05-1.6-8.94-14.31-8.85-33.96c0.11-23.32,15.06-39.2,26.11-43.89c0.19-0.08,0.4-0.17,0.61-0.25
		c0.05-0.02,0.11-0.04,0.17-0.06c0.17-0.06,0.34-0.13,0.52-0.19c0.06-0.02,0.11-0.04,0.17-0.06c0.22-0.08,0.44-0.15,0.68-0.23
		c0.02,0,0.03-0.01,0.04-0.01c0.27-0.08,0.54-0.17,0.82-0.25c13.24-3.81,44.51-3.74,47.33,46.69c0.07,0.99,0.11,1.98,0.13,2.97
		c-0.01,0.05-0.02,0.1-0.03,0.15c0.04,3.45-0.17,6.87-0.6,10.26c-0.01,0.04-0.01,0.07-0.01,0.11c-0.14,1.1-0.31,2.19-0.49,3.27
		c-0.02,0.12-0.05,0.25-0.07,0.37c-0.16,0.93-0.34,1.85-0.54,2.77c-0.04,0.21-0.09,0.42-0.14,0.64c-0.21,0.94-0.43,1.88-0.66,2.81
		c-0.02,0.09-0.05,0.19-0.07,0.28c-0.28,1.07-0.57,2.13-0.88,3.19c-0.02,0.07-0.05,0.15-0.07,0.22c-0.28,0.94-0.58,1.88-0.89,2.81
		c-0.07,0.21-0.14,0.41-0.21,0.62c-0.3,0.88-0.62,1.76-0.94,2.63c-0.05,0.13-0.09,0.26-0.14,0.39c-0.39,1.03-0.8,2.06-1.22,3.09
		c0,0,0,0,0,0.01c-0.41,0.98-0.83,1.95-1.26,2.91c-0.08,0.19-0.17,0.38-0.26,0.56c-0.38,0.84-0.78,1.68-1.18,2.51
		c-0.07,0.14-0.14,0.28-0.2,0.43c-0.96,1.95-1.97,3.88-3.03,5.78c-0.09,0.16-0.18,0.31-0.26,0.47c-0.46,0.82-0.93,1.63-1.41,2.44
		c-0.08,0.13-0.16,0.27-0.24,0.4c-0.56,0.94-1.12,1.87-1.7,2.79c0.05-0.08,0.1-0.16,0.15-0.24c-21.19,34.03-55.47,57.73-55.47,57.73
		l3.25,0.53l13.36-8.79c-3.36,2.88-6.27,5.18-8.42,6.85c-1.31,0.99-2.35,1.77-3.05,2.3c-0.71,0.51-1.09,0.79-1.09,0.79
		c2.06-0.98,9.32-5.8,18.29-13.7l6.76-4.45l8.36-10.41c5.72-6.25,11.44-13.24,16.57-20.61l0.08-0.12l6.48-8.07
		c-0.07,0.11-0.13,0.22-0.2,0.33c-1.11,1.76-2.21,3.54-3.39,5.29c-1.15,1.77-2.37,3.5-3.57,5.24c-0.61,0.87-1.24,1.72-1.86,2.58
		c-0.62,0.86-1.25,1.71-1.89,2.55c-2.53,3.39-5.2,6.65-7.86,9.8c-1.35,1.56-2.68,3.12-4.04,4.6c-1.34,1.51-2.71,2.95-4.05,4.37
		c-5.38,5.66-10.71,10.58-15.41,14.61c-2.14,1.84-4.14,3.47-5.98,4.93c0.88-0.5,1.8-1.04,2.75-1.6c5.42-4.37,11.99-10.2,18.9-17.47
		c7.52-7.89,15.41-17.48,22.63-28.4c1.83-2.76,3.61-5.61,5.34-8.53l4.43-7.72l2.78-5.64c0.75-1.53,1.45-3.09,2.18-4.63
		c0.68-1.58,1.39-3.15,2.05-4.75c0.64-1.61,1.32-3.19,1.91-4.82l0.91-2.43c0.3-0.81,0.57-1.63,0.85-2.45
		c0.28-0.82,0.57-1.63,0.83-2.45c0.26-0.83,0.51-1.65,0.77-2.47c0.53-1.64,0.96-3.31,1.43-4.96c0.45-1.66,0.86-3.27,1.25-4.94
		c1.57-6.61,2.69-13.48,2.82-20.51C363.61,340.51,363.36,336.95,362.78,333.43z M359.91,366.43c-0.16,0.7-0.35,1.5-0.55,2.4
		c-0.24,0.9-0.5,1.9-0.79,2.98c-1.19,4.32-3.02,9.98-5.62,16.3c-1.19,2.93-2.58,6-4.09,9.16l1.06-4.01
		c1.74-3.73,3.25-7.3,4.51-10.59c2.18-5.64,3.65-10.47,4.61-13.87c0.46-1.69,0.82-3.01,1.04-3.93c0.23-0.91,0.35-1.4,0.35-1.4
		C360.38,364.01,360.21,365.03,359.91,366.43z" />
		<path class="st5" d="M263.6,389.66c0,0-0.42-1.13-1.19-3.16c-0.1-0.31-0.2-0.64-0.31-0.98c-0.26-0.82-0.56-1.75-0.85-2.79
		c-0.11-0.41-0.22-0.84-0.33-1.28c-0.09-0.36-0.19-0.72-0.29-1.1c-0.15-0.56-0.27-1.13-0.39-1.74c-0.06-0.31-0.13-0.63-0.2-0.95
		c-0.88-4.34-1.4-8.85-1.53-13.41c-0.17-5.48,0.21-11.04,1.11-16.53c1.04-6.16,2.76-12.16,5.12-17.82c1.17-2.66,2.6-5.76,4.39-8.68
		c0.62-1.11,1.35-2.19,2.06-3.24c0.2-0.29,0.4-0.6,0.6-0.9c0.31-0.46,0.65-0.91,0.98-1.34c0.16-0.21,0.33-0.43,0.49-0.64
		c0.14-0.18,0.29-0.37,0.42-0.56c0.35-0.46,0.71-0.94,1.1-1.38c0.54-0.62,1.07-1.25,1.61-1.87l0.4-0.46l0.43-0.44l0.86-0.88
		c0.29-0.29,0.57-0.58,0.86-0.87c0.29-0.3,0.57-0.58,0.88-0.85l0.71-0.63c0.37-0.33,0.74-0.66,1.11-0.99
		c0.53-0.49,1.1-0.93,1.66-1.36l0.22-0.17c0.5-0.38,0.99-0.76,1.48-1.13l0.44-0.34c0.66-0.44,1.31-0.87,1.96-1.31
		c0.12-0.08,0.23-0.15,0.35-0.23c0.53-0.35,1.08-0.71,1.64-1.01c6.18-3.62,12.01-5.26,15.81-6c0,0,0.38-0.08,1.11-0.22
		c0.19-0.04,0.41-0.08,0.65-0.13c0.21-0.04,0.44-0.08,0.68-0.13c0.4-0.06,0.85-0.12,1.34-0.17c0.18-0.02,0.37-0.04,0.56-0.07
		c2.52-0.34,6.61-0.61,11.83,0c5.74,0.69,11.16,2.24,16.13,4.63l0.32,0.16c0.6,0.29,1.2,0.59,1.8,0.89c0.5,0.27,1,0.56,1.49,0.84
		c0.2,0.12,0.41,0.24,0.61,0.35c0.23,0.14,0.46,0.27,0.69,0.41l0.36,0.21c0.23,0.14,0.46,0.29,0.68,0.44
		c0.12,0.08,0.23,0.16,0.35,0.24c0.68,0.47,1.37,0.94,2.06,1.41c0.5,0.37,1,0.78,1.48,1.16c0.17,0.14,0.34,0.27,0.51,0.41l0.28,0.23
		c0.24,0.19,0.48,0.39,0.72,0.58l0.95,0.88c0.14,0.13,0.28,0.26,0.42,0.4c0.48,0.45,0.98,0.92,1.47,1.4l0.31,0.34
		c0.49,0.53,0.98,1.07,1.47,1.61c0.55,0.58,1.06,1.24,1.55,1.87l0.14,0.18l0.81,1.06c0.27,0.35,0.54,0.7,0.78,1.09l1.46,2.27
		c0.25,0.38,0.47,0.79,0.67,1.17l0.63,1.19l0.62,1.19c0.14,0.27,0.26,0.55,0.37,0.81c0.06,0.13,0.11,0.27,0.17,0.4l0.17,0.4
		c0.29,0.67,0.58,1.36,0.85,2.04c0.09,0.26,0.18,0.51,0.26,0.76c0.47,1.36,0.96,2.77,1.27,4.15c0.41,1.47,0.67,2.92,0.93,4.33
		c0.03,0.17,0.06,0.33,0.09,0.5c0.09,0.54,0.16,1.08,0.22,1.61c0.03,0.24,0.06,0.49,0.09,0.74c0.1,0.82,0.19,1.57,0.22,2.3
		l0.14,2.23c0.02,0.5,0.02,1,0.03,1.48c0,0.22,0,0.45,0.01,0.67c0.03,1.13-0.01,2.21-0.06,3.25c-0.01,0.29-0.02,0.57-0.03,0.86
		c-0.04,0.92-0.12,1.81-0.19,2.67c-0.03,0.37-0.06,0.75-0.09,1.13c-0.03,0.24-0.06,0.49-0.09,0.73c-0.11,0.95-0.22,1.86-0.34,2.73
		c-0.04,0.28-0.09,0.56-0.13,0.84c-0.12,0.8-0.24,1.55-0.36,2.28c-0.19,0.98-0.36,1.9-0.52,2.78c-0.35,1.64-0.69,3.2-1.01,4.44
		l-0.01,0.02c-0.15,0.6-0.29,1.14-0.42,1.62c-0.06,0.21-0.12,0.41-0.17,0.59c-0.07,0.23-0.13,0.45-0.19,0.64l-0.04-0.01
		c0.06-0.19,0.12-0.41,0.19-0.64c0.05-0.18,0.11-0.38,0.17-0.59c0.12-0.48,0.26-1.02,0.42-1.62l0.01-0.02
		c0.33-1.24,0.66-2.79,1.01-4.44c0.16-0.87,0.34-1.8,0.52-2.77c0.12-0.73,0.24-1.48,0.36-2.28c0.04-0.28,0.09-0.56,0.13-0.84
		c0.12-0.88,0.22-1.78,0.34-2.73c0.03-0.24,0.06-0.48,0.09-0.73c0.03-0.37,0.06-0.76,0.09-1.13c0.07-0.86,0.15-1.75,0.19-2.66
		c0.01-0.28,0.02-0.57,0.03-0.86c0.04-1.04,0.09-2.12,0.06-3.25c0-0.22-0.01-0.45-0.01-0.67c0-0.48-0.01-0.98-0.03-1.48l-0.14-2.23
		c-0.03-0.73-0.12-1.47-0.22-2.29c-0.03-0.25-0.06-0.5-0.09-0.74c-0.06-0.52-0.13-1.06-0.22-1.61c-0.03-0.17-0.06-0.33-0.09-0.5
		c-0.25-1.41-0.52-2.87-0.93-4.33c-0.32-1.38-0.8-2.79-1.27-4.15c-0.09-0.25-0.18-0.51-0.26-0.76c-0.27-0.68-0.57-1.37-0.85-2.04
		l-0.17-0.4c-0.06-0.13-0.12-0.27-0.17-0.4c-0.11-0.27-0.23-0.55-0.37-0.81l-0.62-1.19l-0.63-1.19c-0.2-0.38-0.42-0.79-0.67-1.16
		l-1.46-2.27c-0.24-0.39-0.5-0.74-0.78-1.09l-0.95-1.25c-0.49-0.63-0.99-1.29-1.54-1.87c-0.49-0.54-0.98-1.07-1.47-1.61l-0.31-0.34
		c-0.48-0.48-0.98-0.94-1.46-1.4c-0.14-0.13-0.28-0.26-0.42-0.4l-0.95-0.87c-0.24-0.19-0.48-0.39-0.72-0.58l-0.28-0.23
		c-0.17-0.14-0.34-0.27-0.51-0.41c-0.48-0.39-0.98-0.79-1.48-1.16c-0.69-0.47-1.37-0.95-2.06-1.41c-0.12-0.08-0.24-0.16-0.35-0.24
		c-0.22-0.15-0.45-0.31-0.68-0.44l-0.36-0.21c-0.23-0.14-0.46-0.27-0.69-0.41c-0.2-0.12-0.41-0.24-0.61-0.35
		c-0.49-0.28-0.99-0.58-1.48-0.84c-0.6-0.3-1.2-0.59-1.8-0.89l-0.32-0.16c-4.96-2.38-10.38-3.94-16.11-4.63
		c-5.22-0.61-9.31-0.34-11.83,0c-0.19,0.02-0.38,0.05-0.56,0.07c-0.48,0.06-0.94,0.11-1.33,0.17c-0.24,0.05-0.47,0.09-0.68,0.13
		c-0.24,0.05-0.46,0.09-0.65,0.13c-0.72,0.14-1.11,0.22-1.11,0.22c-3.8,0.74-9.62,2.38-15.79,6c-0.57,0.3-1.11,0.66-1.64,1.01
		c-0.12,0.08-0.23,0.15-0.35,0.23c-0.65,0.43-1.3,0.87-1.96,1.31l-0.01,0.01l-0.42,0.32c-0.49,0.38-0.98,0.75-1.48,1.13l-0.22,0.17
		c-0.56,0.43-1.13,0.88-1.66,1.36c-0.37,0.33-0.74,0.66-1.12,1l-0.71,0.63c-0.31,0.27-0.59,0.55-0.88,0.85
		c-0.29,0.29-0.57,0.58-0.86,0.87l-0.86,0.88l-0.43,0.44l-0.4,0.46c-0.53,0.62-1.07,1.24-1.61,1.87c-0.39,0.44-0.75,0.92-1.1,1.38
		c-0.14,0.18-0.28,0.37-0.42,0.56c-0.16,0.22-0.33,0.43-0.49,0.64c-0.33,0.43-0.67,0.88-0.98,1.34c-0.2,0.3-0.4,0.61-0.6,0.9
		c-0.7,1.05-1.43,2.13-2.06,3.24c-1.79,2.92-3.22,6.02-4.39,8.68c-2.35,5.66-4.07,11.65-5.11,17.81c-0.9,5.49-1.28,11.05-1.11,16.52
		c0.13,4.56,0.65,9.07,1.53,13.41c0.07,0.32,0.14,0.64,0.2,0.95c0.12,0.61,0.24,1.18,0.39,1.73c0.1,0.38,0.19,0.74,0.29,1.1
		c0.12,0.44,0.23,0.87,0.33,1.28c0.29,1.04,0.59,1.97,0.85,2.79c0.11,0.35,0.22,0.67,0.31,0.98c0.76,2.04,1.19,3.16,1.19,3.16
		L263.6,389.66z" />
		<path class="st5" d="M289.53,464.36l-0.02-0.03c2.31-1.74,10.61-8.2,20.19-18.14c4.38-4.54,8.63-9.38,12.64-14.4
		c4.23-5.29,8.22-10.81,11.84-16.41c3.51-5.42,6.75-11.05,9.65-16.74c2.49-4.88,4.76-9.91,6.74-14.93l0.24-0.62
		c0.34-0.88,0.66-1.73,0.97-2.55c0.25-0.67,0.48-1.33,0.7-1.96c0.11-0.32,0.21-0.61,0.32-0.91c0.47-1.3,0.85-2.49,1.18-3.54
		c0.13-0.4,0.25-0.78,0.36-1.14c0.29-0.88,0.51-1.65,0.68-2.26c0.08-0.29,0.15-0.54,0.22-0.76c0.2-0.7,0.3-1.07,0.3-1.07l0.04,0.01
		c0,0-0.11,0.37-0.3,1.07c-0.07,0.22-0.14,0.47-0.22,0.76c-0.17,0.61-0.39,1.38-0.68,2.26c-0.12,0.36-0.24,0.74-0.36,1.14
		c-0.33,1.05-0.71,2.24-1.18,3.54c-0.11,0.3-0.21,0.6-0.32,0.91c-0.22,0.63-0.45,1.29-0.7,1.96c-0.31,0.82-0.63,1.67-0.97,2.55
		l-0.24,0.63c-1.99,5.03-4.26,10.05-6.75,14.93c-2.9,5.69-6.15,11.32-9.65,16.74c-3.63,5.6-7.61,11.12-11.85,16.41
		c-4.01,5.02-8.26,9.86-12.64,14.4C300.15,456.16,291.85,462.61,289.53,464.36z" />
		<path class="st8" d="M261.19,381.89c0.11,0.43,0.21,0.84,0.3,1.23c0.08,0.27,0.16,0.54,0.23,0.8c0.31,1.08,0.58,2.01,0.84,2.79
		c0.68,1.93,1.04,2.95,1.04,2.95l0.04-0.01c0,0-0.36-1.03-1.04-2.95c-0.25-0.78-0.52-1.71-0.84-2.79c-0.07-0.26-0.15-0.52-0.23-0.8
		c-0.09-0.39-0.19-0.8-0.3-1.23c-0.27-1.1-0.58-2.34-0.81-3.68c-1.33-6.77-2.41-17.62,0.01-30.82c0.07-0.35,0.14-0.7,0.21-1.05
		c0.25-1.23,0.5-2.5,0.84-3.76c0.07-0.28,0.14-0.57,0.21-0.84c0.13-0.53,0.26-1.08,0.43-1.62c0.24-0.82,0.49-1.65,0.74-2.49
		c0.16-0.56,0.36-1.12,0.55-1.67c0.1-0.28,0.2-0.56,0.29-0.84c0.11-0.31,0.22-0.63,0.33-0.95l0.11-0.32
		c0.1-0.27,0.21-0.54,0.31-0.81c0.06-0.15,0.12-0.3,0.18-0.45c0.11-0.27,0.22-0.55,0.33-0.82c0.23-0.57,0.46-1.15,0.71-1.73
		c0.32-0.69,0.64-1.38,0.96-2.08l0.22-0.47c1.76-3.62,3.76-7.03,5.95-10.13c2.52-3.48,5.33-6.66,8.36-9.43
		c3.47-3.16,7.14-5.77,10.89-7.75c4.05-2.16,8.4-3.8,12.95-4.88l1.71-0.37c0.12-0.03,0.24-0.05,0.36-0.08
		c0.44-0.1,0.9-0.2,1.38-0.26l1.8-0.26c0.16-0.02,0.32-0.04,0.48-0.07c0.43-0.06,0.88-0.12,1.33-0.14l1.81-0.12
		c0.18-0.01,0.36-0.02,0.54-0.03c0.42-0.03,0.85-0.05,1.27-0.04l1.81,0.02c0.19,0.01,0.38,0.01,0.56,0.01
		c0.41,0,0.84,0.01,1.25,0.05c4.81,0.27,9.57,1.22,14.15,2.83c0,0,0.61,0.25,1.75,0.72c1.04,0.4,2.53,1.11,4.85,2.33
		c0.5,0.29,1.03,0.61,1.59,0.93c0.17,0.11,0.34,0.21,0.53,0.31c0.39,0.23,0.8,0.47,1.2,0.75c0.28,0.19,0.55,0.38,0.85,0.59
		c0.94,0.64,1.91,1.3,2.87,2.12c2.81,2.18,5.46,4.86,7.88,7.98c2.77,3.55,5.04,7.64,6.57,11.82c1.62,4.35,2.62,9.13,2.99,14.22
		c0.33,4.54,0.18,9.29-0.47,14.5c-0.53,4.32-1.4,8.87-2.66,13.91c-0.54,2.24-1.19,4.54-1.82,6.77l-0.35,1.13
		c-0.23,0.74-0.45,1.48-0.68,2.22c-0.23,0.73-0.48,1.46-0.72,2.17c-0.13,0.37-0.26,0.76-0.39,1.14c-1.66,4.77-3.29,8.95-4.99,12.79
		c-1.96,4.44-3.81,8.28-5.67,11.75l-0.04,0.07c-0.23,0.44-0.46,0.88-0.69,1.31c-0.14,0.25-0.27,0.49-0.4,0.73
		c-0.11,0.21-0.23,0.41-0.34,0.62c-0.5,0.9-0.99,1.78-1.47,2.66c-0.29,0.51-0.59,1.01-0.88,1.5c-0.21,0.35-0.41,0.71-0.62,1.06
		c-0.57,0.99-1.04,1.78-1.48,2.47c-3.4,5.57-7.07,10.98-10.9,16.06l-0.36,0.48c-0.26,0.35-0.52,0.69-0.77,1.03
		c-0.26,0.33-0.51,0.66-0.76,0.97l-2.21,2.79c-1.17,1.41-2.07,2.48-2.68,3.18c0,0.01-0.4,0.49-1.13,1.36
		c-0.2,0.23-0.42,0.5-0.66,0.78c-0.67,0.79-1.5,1.78-2.51,2.91c-2.46,2.8-6.41,7.13-11.31,11.83c-1.22,1.17-2.46,2.33-3.73,3.48
		c0.07-0.05,0.14-0.1,0.22-0.14c1.2-1.09,2.38-2.2,3.54-3.31c4.9-4.7,8.86-9.03,11.32-11.83c1.01-1.13,1.84-2.11,2.51-2.91
		c0.24-0.28,0.46-0.55,0.66-0.78c0.73-0.86,1.13-1.35,1.13-1.36c0.61-0.71,1.51-1.78,2.68-3.18l1.89-2.39l0.32-0.41
		c0.25-0.31,0.5-0.64,0.76-0.97c0.25-0.33,0.51-0.68,0.77-1.03l0.36-0.48c3.83-5.09,7.5-10.49,10.9-16.06
		c0.44-0.7,0.91-1.48,1.48-2.48c0.2-0.35,0.41-0.7,0.62-1.06c0.29-0.5,0.58-1,0.88-1.5c0.49-0.88,0.98-1.76,1.47-2.66
		c0.11-0.21,0.23-0.42,0.34-0.62c0.13-0.24,0.27-0.49,0.4-0.73c0.23-0.44,0.46-0.87,0.69-1.31l0.04-0.08
		c1.85-3.47,3.71-7.31,5.67-11.75c1.71-3.83,3.34-8.02,4.99-12.79c0.13-0.38,0.26-0.77,0.39-1.14c0.24-0.71,0.49-1.44,0.72-2.17
		c0.23-0.74,0.45-1.48,0.68-2.22l0.35-1.13c0.63-2.22,1.28-4.53,1.83-6.77c1.25-5.05,2.12-9.6,2.66-13.92
		c0.65-5.22,0.8-9.96,0.47-14.51c-0.36-5.09-1.37-9.88-2.99-14.23c-1.53-4.18-3.81-8.27-6.58-11.83c-2.43-3.12-5.08-5.81-7.89-7.99
		c-0.97-0.82-1.94-1.48-2.88-2.13c-0.29-0.2-0.57-0.39-0.85-0.58c-0.4-0.29-0.81-0.53-1.2-0.76c-0.18-0.11-0.35-0.21-0.53-0.31
		c-0.56-0.33-1.09-0.64-1.59-0.93c-2.32-1.22-3.82-1.94-4.85-2.33c-1.15-0.47-1.75-0.72-1.75-0.72c-4.59-1.61-9.35-2.56-14.16-2.83
		c-0.41-0.04-0.84-0.05-1.25-0.05c-0.18,0-0.38,0-0.56-0.01l-1.81-0.02c-0.42-0.01-0.86,0.01-1.28,0.04
		c-0.18,0.01-0.36,0.02-0.54,0.03l-1.81,0.12c-0.44,0.02-0.89,0.08-1.33,0.14c-0.16,0.02-0.32,0.04-0.48,0.07l-1.8,0.26
		c-0.48,0.06-0.94,0.16-1.38,0.26c-0.12,0.03-0.24,0.05-0.36,0.08l-1.71,0.37c-4.55,1.08-8.91,2.72-12.96,4.88
		c-3.76,1.98-7.43,4.59-10.9,7.75c-3.03,2.77-5.84,5.95-8.36,9.44c-2.19,3.1-4.19,6.51-5.95,10.13l-0.22,0.47
		c-0.32,0.7-0.64,1.39-0.96,2.08c-0.25,0.58-0.48,1.16-0.71,1.73c-0.11,0.28-0.22,0.55-0.33,0.82c-0.06,0.15-0.12,0.3-0.18,0.45
		c-0.11,0.26-0.22,0.54-0.31,0.81l-0.11,0.32c-0.11,0.32-0.22,0.63-0.33,0.95c-0.1,0.28-0.2,0.57-0.29,0.84
		c-0.19,0.55-0.39,1.11-0.55,1.67c-0.25,0.84-0.5,1.67-0.74,2.49c-0.17,0.54-0.3,1.09-0.43,1.62c-0.07,0.28-0.14,0.56-0.21,0.84
		c-0.34,1.27-0.59,2.54-0.84,3.76c-0.07,0.35-0.14,0.7-0.21,1.05c-2.42,13.2-1.34,24.05-0.01,30.83
		C260.61,379.54,260.92,380.79,261.19,381.89z" />
	</g>
	<g>
		<g>
			<path class="st9" d="M825.15,367.31l-11.02-6.76c-6.91-4.26-11.82-8.45-14.75-12.57c-2.92-4.12-4.38-8.87-4.38-14.23
			c0-8.05,2.77-14.59,8.3-19.61c5.53-5.02,12.72-7.54,21.56-7.54c8.45,0,16.21,2.4,23.26,7.19v16.61
			c-7.3-7.09-15.15-10.63-23.55-10.63c-4.74,0-8.62,1.11-11.67,3.32c-3.04,2.21-4.57,5.04-4.57,8.49c0,3.06,1.12,5.93,3.36,8.6
			c2.24,2.67,5.85,5.48,10.82,8.42l11.07,6.61c12.35,7.45,18.52,16.93,18.52,28.44c0,8.2-2.72,14.85-8.15,19.98
			c-5.44,5.12-12.5,7.68-21.2,7.68c-10,0-19.11-3.1-27.32-9.31v-18.59c7.83,10.01,16.88,15.02,27.17,15.02
			c4.54,0,8.32-1.28,11.34-3.83c3.02-2.55,4.53-5.75,4.53-9.59C838.48,378.79,834.04,372.89,825.15,367.31z" />
			<path class="st9" d="M916.24,394.41v13.17c-6.62,2.49-13.09,3.73-19.42,3.73c-10.44,0-18.76-3.12-24.96-9.37
			c-6.21-6.24-9.31-14.61-9.31-25.1c0-10.58,3.02-19.12,9.06-25.61c6.04-6.49,13.99-9.73,23.84-9.73c3.43,0,6.51,0.33,9.24,0.99
			s6.1,1.89,10.11,3.7v14.2c-6.67-4.29-12.85-6.44-18.55-6.44c-5.94,0-10.82,2.11-14.64,6.33c-3.82,4.22-5.72,9.6-5.72,16.13
			c0,6.88,2.07,12.34,6.2,16.39c4.13,4.05,9.7,6.07,16.7,6.07C903.85,398.87,909.67,397.38,916.24,394.41z" />
			<path class="st9" d="M938.05,314.5c2.17,0,4.03,0.76,5.58,2.27c1.54,1.51,2.32,3.37,2.32,5.56c0,2.15-0.77,4-2.32,5.56
			c-1.55,1.56-3.41,2.34-5.58,2.34c-2.03,0-3.82-0.79-5.36-2.38c-1.55-1.58-2.32-3.43-2.32-5.52c0-2.05,0.77-3.87,2.32-5.45
			C934.23,315.29,936.02,314.5,938.05,314.5z M931.53,342.82h13.19v67.32h-13.19V342.82z" />
			<path class="st9" d="M1020.59,377.65H973.7c0.34,6.44,2.47,11.56,6.41,15.37c3.94,3.8,9.02,5.71,15.25,5.71
			c8.7,0,16.71-2.73,24.06-8.2v13.03c-4.06,2.73-8.08,4.68-12.07,5.85c-3.99,1.17-8.66,1.76-14.02,1.76
			c-7.34,0-13.29-1.54-17.83-4.61c-4.54-3.07-8.18-7.21-10.91-12.4c-2.73-5.2-4.09-11.21-4.09-18.04c0-10.24,2.87-18.57,8.62-24.99
			c5.75-6.41,13.21-9.62,22.39-9.62c8.84,0,15.89,3.12,21.16,9.37c5.26,6.25,7.9,14.61,7.9,25.1V377.65z M973.99,369.67h33.55
			c-0.34-5.32-1.91-9.41-4.71-12.29c-2.8-2.88-6.57-4.32-11.3-4.32c-4.74,0-8.61,1.44-11.63,4.32
			C976.88,360.26,974.91,364.36,973.99,369.67z" />
			<path class="st9" d="M1048.05,342.82v8.56c5.89-6.59,12.58-9.88,20.07-9.88c4.15,0,8.02,1.09,11.59,3.26
			c3.58,2.17,6.29,5.15,8.15,8.93c1.86,3.78,2.79,9.77,2.79,17.96v38.49h-13.19V371.8c0-6.88-1.04-11.79-3.12-14.74
			c-2.08-2.95-5.56-4.43-10.43-4.43c-6.23,0-11.52,3.15-15.87,9.44v48.08h-13.48v-67.32H1048.05z" />
			<path class="st9" d="M1159.07,394.41v13.17c-6.62,2.49-13.09,3.73-19.42,3.73c-10.44,0-18.76-3.12-24.96-9.37
			c-6.21-6.24-9.31-14.61-9.31-25.1c0-10.58,3.02-19.12,9.06-25.61c6.04-6.49,13.99-9.73,23.84-9.73c3.43,0,6.51,0.33,9.24,0.99
			s6.1,1.89,10.11,3.7v14.2c-6.67-4.29-12.85-6.44-18.55-6.44c-5.94,0-10.82,2.11-14.64,6.33c-3.82,4.22-5.72,9.6-5.72,16.13
			c0,6.88,2.07,12.34,6.2,16.39c4.13,4.05,9.7,6.07,16.7,6.07C1146.68,398.87,1152.5,397.38,1159.07,394.41z" />
			<path class="st9" d="M1230.89,377.65H1184c0.34,6.44,2.47,11.56,6.41,15.37c3.94,3.8,9.02,5.71,15.25,5.71
			c8.7,0,16.71-2.73,24.06-8.2v13.03c-4.06,2.73-8.08,4.68-12.07,5.85c-3.99,1.17-8.66,1.76-14.02,1.76
			c-7.34,0-13.29-1.54-17.83-4.61c-4.54-3.07-8.18-7.21-10.91-12.4c-2.73-5.2-4.09-11.21-4.09-18.04c0-10.24,2.87-18.57,8.62-24.99
			c5.75-6.41,13.21-9.62,22.39-9.62c8.84,0,15.89,3.12,21.16,9.37c5.26,6.25,7.9,14.61,7.9,25.1V377.65z M1184.29,369.67h33.55
			c-0.34-5.32-1.91-9.41-4.71-12.29c-2.8-2.88-6.57-4.32-11.3-4.32c-4.74,0-8.61,1.44-11.63,4.32
			C1187.18,360.26,1185.21,364.36,1184.29,369.67z" />
			<path class="st9"
				d="M1241.9,405.31v-14.34c3.72,2.63,7.52,4.77,11.41,6.4c3.89,1.64,7.16,2.45,9.82,2.45
			c2.75,0,5.12-0.68,7.1-2.05c1.98-1.37,2.97-3,2.97-4.9c0-1.95-0.64-3.57-1.92-4.87c-1.28-1.29-4.05-3.16-8.3-5.6
			c-8.5-4.78-14.07-8.87-16.7-12.26c-2.63-3.39-3.95-7.08-3.95-11.09c0-5.17,1.99-9.39,5.98-12.66c3.99-3.27,9.12-4.9,15.4-4.9
			c6.52,0,13.21,1.85,20.07,5.56v13.17c-7.83-4.78-14.23-7.17-19.2-7.17c-2.56,0-4.63,0.55-6.2,1.65c-1.57,1.1-2.36,2.55-2.36,4.36
			c0,1.56,0.71,3.05,2.13,4.47c1.42,1.42,3.92,3.12,7.5,5.12l4.71,2.71c11.11,6.34,16.67,13.36,16.67,21.07
			c0,5.51-2.14,10.04-6.41,13.57c-4.28,3.54-9.77,5.3-16.49,5.3c-3.96,0-7.49-0.43-10.58-1.28S1246.59,407.6,1241.9,405.31z" />
		</g>
		<path class="st9"
			d="M508.92,310.69v99.95h-24.9v-39.42h-49.8v39.42h-24.9v-99.95h24.9v39.14h49.8v-39.14H508.92z" />
		<g>
			<path class="st9" d="M579.37,394.52c-6,3.21-11.81,4.82-17.43,4.82c-6.58,0-11.83-1.65-15.74-4.96c-3.91-3.3-6.08-8.02-6.51-14.15
			h48.51c0.43-11.73-2.68-21.09-9.34-28.08c-6.65-6.99-15.18-10.48-25.58-10.48c-10.35,0-18.87,3.32-25.54,9.95
			c-6.68,6.64-10.02,15.11-10.02,25.43c0,10.5,3.55,18.94,10.66,25.32c7.11,6.37,16.6,9.56,28.47,9.56c11.04,0,20.44-2.52,28.2-7.56
			L579.37,394.52z M554.78,354.33c8.63,0,13.52,4.91,14.67,14.74h-29.33C541.16,359.24,546.05,354.33,554.78,354.33z" />
		</g>
		<path class="st9" d="M655.7,397.76c-2.34,0-3.51-1.58-3.51-4.73v-30.81c0-13.71-9.54-20.56-28.62-20.56
		c-10.63,0-20.39,2.74-29.26,8.23v0.58l6.53,11.31c5.75-3.91,11.87-5.88,18.37-5.88c8.3,0,12.21,3.77,11.73,11.3
		c-19.17,5.69-30.66,10.33-34.45,13.94c-3.79,3.61-5.69,8.35-5.69,14.22c0,4.39,1.84,8.25,5.51,11.57
		c3.67,3.32,8.13,4.98,13.38,4.98c7.44,0,14.86-2.53,22.25-7.58c1.24,5.06,5.2,7.58,11.88,7.58c6.2,0,12.83-2.05,19.89-6.15v-11.81
		C660.14,396.5,657.47,397.76,655.7,397.76z M630.95,394.24c-3.82,3.4-7.73,5.1-11.73,5.1c-1.91,0-3.53-0.71-4.87-2.12
		c-1.33-1.41-2-3.1-2-5.06c0-3.06,1.32-5.59,3.97-7.57c2.65-1.99,7.52-4.22,14.63-6.71V394.24z" />
		<path class="st9" d="M782.66,357.62V343.1h-24.61v-21.25h0v-0.06h-10.01l-20.73,35.9h9.5v28.9c0,8.3,2.29,14.59,6.87,18.89
		c4.58,4.29,11.02,6.44,19.32,6.44c6.34,0,12.9-1.41,19.67-4.22v-15.38c-5.1,2.62-9.85,3.93-14.24,3.93c-3.24,0-5.78-0.96-7.62-2.9
		c-1.83-1.93-2.75-4.57-2.75-7.91v-27.83H782.66z" />
		<path class="st9" d="M726.82,345.7c-4.1-3.03-9.79-4.78-14.43-4.45s-14.94,1.53-21.09,15.36h-0.28V343.1h-21.25v67.54h21.25v-31.28
		c0-18.99,12.84-21.61,17.76-21.5c3.29,0.08,6.79,1.21,9.49,2.8L726.82,345.7z" />
	</g>
</svg>