<?xml version="1.0" encoding="utf-8"?>
<!-- Generator: Adobe Illustrator 28.2.0, SVG Export Plug-In . SVG Version: 6.00 Build 0)  -->
<svg version="1.1" baseProfile="basic" id="Artwork"
	 xmlns="http://www.w3.org/2000/svg" xmlns:xlink="http://www.w3.org/1999/xlink" x="0px" y="0px" viewBox="0 0 587.08 300.12"
	 xml:space="preserve">
<style type="text/css">
	.st0{fill:url(#SVGID_1_);}
	.st1{fill:url(#SVGID_00000155834971855975051570000013015344791917574285_);}
	.st2{fill:url(#SVGID_00000096038938045933242670000005752463379253584049_);}
	.st3{fill:url(#SVGID_00000078005442702122784220000009775539662331161256_);}
	.st4{opacity:0.7;}
	.st5{fill:#ED1C26;}
	.st6{fill:#F6977B;}
	.st7{opacity:0.83;}
	.st8{fill:#4DC4F1;}
	.st9{fill:#ADDEF8;}
	.st10{opacity:0.83;fill:#368CAD;}
	.st11{opacity:0.72;fill:#C2151D;}
	.st12{fill:none;stroke:#000000;stroke-width:2;stroke-miterlimit:10;}
	.st13{fill:none;}
</style>
<g>
	<g>
		<g>
			<linearGradient id="SVGID_1_" gradientUnits="userSpaceOnUse" x1="3.1466" y1="172.5282" x2="391.5899" y2="172.5282">
				<stop  offset="0" style="stop-color:#1E6F91"/>
				<stop  offset="0" style="stop-color:#257898"/>
				<stop  offset="0.1882" style="stop-color:#4FBDC8"/>
				<stop  offset="1" style="stop-color:#FFFFFF"/>
			</linearGradient>
			<path class="st0" d="M3.15,157.48l27.67,47.92c198.36-76.96,360.77,0.91,360.77,0.91C222.53,93.39,9.2,155.68,3.15,157.48z"/>
			
				<linearGradient id="SVGID_00000058584867755596948070000002147827566958590085_" gradientUnits="userSpaceOnUse" x1="3.1489" y1="172.0845" x2="160.3488" y2="172.0845">
				<stop  offset="0" style="stop-color:#37003F"/>
				<stop  offset="0.1552" style="stop-color:#3B0948"/>
				<stop  offset="0.4643" style="stop-color:#403260"/>
				<stop  offset="0.8948" style="stop-color:#316388"/>
				<stop  offset="1" style="stop-color:#1E6F91"/>
			</linearGradient>
			<path style="fill:url(#SVGID_00000058584867755596948070000002147827566958590085_);" d="M30.89,205.53
				c8.6-13.45,45.92-63.15,129.46-66.67c0,0-74.37-3.61-157.2,18.63L30.89,205.53z"/>
			
				<linearGradient id="SVGID_00000150819021692628360810000014834692423857444224_" gradientUnits="userSpaceOnUse" x1="197.2994" y1="172.5283" x2="585.823" y2="172.5283">
				<stop  offset="0" style="stop-color:#FFFFFF"/>
				<stop  offset="0.0671" style="stop-color:#FEF2EC"/>
				<stop  offset="0.1869" style="stop-color:#FCD9C9"/>
				<stop  offset="0.3455" style="stop-color:#F7B097"/>
				<stop  offset="0.5369" style="stop-color:#F07C5E"/>
				<stop  offset="0.7542" style="stop-color:#E82826"/>
				<stop  offset="0.7718" style="stop-color:#E81C23"/>
				<stop  offset="1" style="stop-color:#A21D1E"/>
			</linearGradient>
			<path style="fill:url(#SVGID_00000150819021692628360810000014834692423857444224_);" d="M585.82,157.51
				c-3.84-1.15-218.56-64.72-388.52,48.81c0,0,162.46-77.89,360.85-0.88L585.82,157.51z"/>
			
				<linearGradient id="SVGID_00000099664445076326846690000006510008892529015211_" gradientUnits="userSpaceOnUse" x1="585.824" y1="172.1637" x2="455.2979" y2="172.1637">
				<stop  offset="0" style="stop-color:#690031"/>
				<stop  offset="1" style="stop-color:#EA2529"/>
			</linearGradient>
			<path style="fill:url(#SVGID_00000099664445076326846690000006510008892529015211_);" d="M585.82,157.51
				c-50.92-17.51-130.53-18.56-130.53-18.56c30.99,0,90.05,54.29,102.89,66.44L585.82,157.51z"/>
			<g class="st4">
				<path class="st5" d="M560.68,184.08c1.61,0.46,4.63,1.44,8.26,2.66l12.14-21.03c-3.85-1.22-6.7-1.97-6.69-1.97
					c-17.99-4.74-35.23-8.1-51.57-10.51c-16.34-2.4-31.79-3.86-46.25-4.74c-28.93-1.73-53.95-1.23-74.52-0.35
					c-20.57,0.92-36.71,2.25-47.75,3.13c-11.04,0.91-16.96,1.36-16.96,1.34c-9.85,1.76-16.58,3.11-21.18,3.97
					c-4.6,0.87-7.06,1.26-8.3,1.36c-2.49,0.21,6.81-0.5,12.58-0.76l11.32-0.55c-2.72,0.17-5.45,0.36-8.17,0.57
					c-4.63,0.82-9.25,1.7-13.87,2.64c2.94-0.23,5.88-0.44,8.81-0.63c-2.41,0.72-8.29,1.65-13.55,2.5l-9.92,1.58
					c6.98-0.55,11.44-0.74,22.22-1.96c10.77-1.23,23.99-2.63,36.84-3.55c12.85-0.94,25.31-1.41,34.56-1.53
					c9.24-0.13,15.27,0.01,15.27-0.01c-2.3,1.06-10.54,1.75-21.6,2.73c-11.05,0.96-24.93,2.27-38.48,4.05
					c-13.56,1.74-26.79,3.92-36.61,5.75c-9.83,1.82-16.26,3.22-16.26,3.21c5.39-0.45,10.47-1.03,21.67-2.6
					c11.2-1.59,25.33-3.39,39.22-4.61c13.89-1.25,27.51-1.9,37.65-2.09c10.14-0.21,16.79-0.06,16.79-0.08
					c-1.74,0.44-10,0.6-21.42,1.19c-11.42,0.57-26.01,1.65-40.35,3.35c-14.35,1.67-28.44,3.95-38.91,5.9
					c-10.48,1.95-17.36,3.49-17.36,3.48c4.33-0.33,16.95-2.83,35.37-5.76c9.21-1.47,19.66-2.95,30.69-4.16
					c11.03-1.22,22.64-2.17,34.14-2.7c11.5-0.54,22.89-0.66,33.48-0.4c10.59,0.25,20.38,0.86,28.71,1.62
					c16.66,1.52,27.47,3.45,27.47,3.41c11.98,1.78,22.43,3.16,29.94,4.11c7.51,0.95,12.06,1.42,12.06,1.41
					c11.09,2.2,19.59,4.34,26.15,6.06C552.82,181.84,557.43,183.17,560.68,184.08z"/>
				<path class="st6" d="M567.87,188.61c-0.02,0-0.06-0.02-0.25-0.09c-2.2-0.81-4.91-1.75-8.05-2.78
					c-7.83-2.56-15.83-4.86-23.79-6.85c-10.84-2.72-22.58-5.08-33.94-6.82c-12.45-1.92-25.55-3.3-38.96-4.1v0c0,0,0,0,0,0
					c-0.04,0-0.17-0.01-0.62-0.07c-5.58-0.64-11.46-1.18-17.49-1.61c-12.7-0.92-27.66-1.26-41.05-0.94
					c-13.64,0.29-29.09,1.31-43.49,2.88c-7.72,0.83-14.2,1.67-18.93,2.29c-2.96,0.39-5.1,0.67-6.31,0.78l0-0.01
					c-0.05,0.02-0.2,0.04-0.62,0.11c-6.28,1.01-12.53,2.05-18.56,3.11c-3.94,0.68-8.11,1.43-12.53,2.22
					c-7.5,1.35-15.26,2.75-21.67,3.73l-0.01-0.06c6.4-0.98,14.16-2.37,21.67-3.73c4.41-0.8,8.58-1.55,12.53-2.22
					c6.03-1.05,12.28-2.1,18.56-3.11c0.31-0.05,0.52-0.08,0.59-0.1v0l0.03,0c1.21-0.11,3.34-0.39,6.3-0.78
					c4.73-0.62,11.21-1.46,18.93-2.29c14.41-1.57,29.86-2.59,43.5-2.88c13.39-0.32,28.36,0.02,41.06,0.94
					c6.03,0.43,11.91,0.97,17.49,1.61c0.3,0.03,0.52,0.06,0.59,0.07l0.03,0c13.4,0.8,26.51,2.18,38.96,4.1
					c11.36,1.74,23.1,4.1,33.95,6.82c7.96,1.99,15.97,4.3,23.8,6.86c3.14,1.03,5.85,1.96,8.05,2.78c0.13,0.05,0.22,0.08,0.23,0.08
					l-0.01,0.03l0,0L567.87,188.61C567.88,188.6,567.87,188.61,567.87,188.61z"/>
				<path class="st5" d="M567.87,188.61c-0.03,0-0.11-0.03-0.58-0.18c-9.96-3.15-21.12-6.15-31.45-8.46
					c-8.52-1.93-18.35-3.84-28.45-5.52c-4.77-0.8-9.3-1.5-13.68-2.18c-4.14-0.64-8.06-1.25-11.44-1.83l0-0.01
					c-0.04,0-0.15-0.02-0.41-0.06c-1.26-0.19-5.08-0.78-10.51-1.46c-4.56-0.58-13.85-1.65-24.89-2.36
					c-10.42-0.69-20.32-0.93-26.79-1c-3.13-0.04-5.95-0.06-8.44-0.07c-3.78-0.02-6.52-0.03-7.93-0.13l0-0.06
					c1.41,0.09,4.15,0.11,7.93,0.13c2.49,0.01,5.31,0.03,8.44,0.07c6.47,0.08,16.38,0.31,26.8,1.01
					c11.03,0.71,20.33,1.78,24.89,2.36c5.43,0.68,9.26,1.27,10.51,1.46c0.19,0.03,0.32,0.05,0.38,0.06v0l0.03,0.01
					c3.38,0.58,7.29,1.19,11.44,1.83c4.38,0.68,8.92,1.38,13.68,2.18c10.09,1.68,19.93,3.58,28.45,5.52
					c10.32,2.31,21.49,5.32,31.45,8.46c0.33,0.1,0.54,0.17,0.56,0.17l-0.01,0.03l0,0l0.02,0.03
					C567.88,188.6,567.88,188.61,567.87,188.61z"/>
				<path class="st5" d="M298.07,168.28l-0.01-0.06c1.86-0.28,4.44-0.72,7.42-1.22c4.5-0.76,10.1-1.7,16.34-2.66
					c11.42-1.77,23.64-3.31,34.4-4.34c13.69-1.34,25.31-1.89,31.02-2.1c4.64-0.18,9.06-0.29,13.13-0.33c0.19,0,0.32,0,0.33,0l0,0.03
					h0.03c0,0.03,0,0.03-0.36,0.03c-4.07,0.04-8.49,0.15-13.13,0.33c-5.71,0.21-17.33,0.77-31.02,2.1
					c-10.76,1.03-22.97,2.57-34.4,4.34c-6.24,0.96-11.84,1.9-16.34,2.66C302.51,167.56,299.94,167.99,298.07,168.28z"/>
			</g>
			<g class="st7">
				<path class="st8" d="M222.92,150.69c11.48,1.01,25.82,3.02,39.74,5.61c13.92,2.56,27.41,5.69,37.38,8.25
					c9.97,2.55,16.47,4.48,16.47,4.47c-1.89-1.3-10.03-4.18-21.3-7.4c-11.26-3.23-25.68-6.74-39.99-9.59
					c-14.3-2.88-28.47-5.1-39.08-6.49c-10.61-1.4-17.63-2.07-17.63-2.08c1.88-0.29,10.64,0.26,22.65,1.69
					c12.02,1.41,27.27,3.79,42.15,6.73c14.89,2.92,29.4,6.4,40.14,9.24c10.74,2.83,17.8,4.98,17.8,4.97
					c-1.59-0.86-5.84-2.36-12.06-4.18c-6.21-1.82-14.41-3.97-23.95-6.15c-9.54-2.18-20.41-4.37-31.94-6.32
					c-11.53-1.96-23.71-3.67-35.84-5.01c-12.13-1.34-24.19-2.31-35.47-2.92c-11.27-0.61-21.75-0.86-30.71-0.9
					c-17.92-0.06-29.72,0.63-29.72,0.6c-13.02,0.72-24.26,2.63-32.18,4.35c-7.93,1.73-12.57,3.24-12.58,3.24
					c-11.8,2.41-20.82,4.69-27.73,6.59c-6.91,1.91-11.72,3.45-15.09,4.59c-4.31,1.48-16.21,5.98-24.18,9.02l12.54,21.72
					c6.67-2,12.48-4.57,12.48-4.57c16.12-6.55,32.13-11.68,47.63-15.63c15.5-3.95,30.5-6.72,44.71-8.58
					c28.44-3.73,53.64-3.88,74.24-2.65c20.63,1.24,36.7,3.83,47.57,5.94c10.87,2.14,16.57,3.8,16.57,3.79
					c9.86,1.49,16.59,2.79,21.15,3.76c4.56,0.98,7.91,2.84,7.91,2.84c-0.6-0.87-6.16-3.15-11.62-5.11
					c-5.08-1.84-10.05-3.41-10.72-3.61c2.61,0.78,5.2,1.58,7.8,2.39c4.63,0.93,9.25,1.91,13.86,2.93c-2.78-1.01-5.58-2-8.38-2.98
					c2.53,0.23,8.35,1.7,13.5,3.18c5.16,1.48,9.66,2.95,9.66,2.95c-3.6-1.85-10.61-4.61-21.14-7.73
					c-10.53-3.13-23.67-6.4-36.57-9.07c-12.9-2.69-25.55-4.78-34.99-6.11c-9.43-1.34-15.64-2-15.64-2
					C202.82,149.59,211.43,149.67,222.92,150.69z"/>
				<path class="st9" d="M329.31,165.91c-4.82-1.91-10.7-3.91-17-5.79c-5.57-1.66-11.79-3.33-17.98-4.82
					c-9.29-2.24-17.01-3.74-19.9-4.28c-0.13-0.02-0.18-0.03-0.2-0.04l0,0c-3.03-0.77-12.91-2.77-26.53-4.85
					c-14.59-2.24-30.99-4.12-46.19-5.28c-19.32-1.52-35.89-1.84-44.05-1.9c-6.51-0.05-12.88-0.01-18.94,0.13
					c-0.48,0.01-0.62,0.01-0.67,0.01l0,0c-13.98,1.08-28.09,2.76-41.95,4.98c-12.18,1.94-24.43,4.35-36.43,7.16
					c-12.03,2.83-23.55,5.96-34.25,9.3c-0.87,0.27-0.87,0.27-0.89,0.26l-0.01-0.01l0-0.01l0.03-0.01l0-0.03
					c0.03,0,0.36-0.11,0.86-0.26c10.7-3.35,22.22-6.48,34.25-9.3c11.99-2.81,24.25-5.22,36.43-7.16c13.85-2.22,27.97-3.9,41.95-4.99
					l0.04,0l0,0c0.08,0,0.3-0.01,0.64-0.01c6.06-0.14,12.44-0.18,18.95-0.13c8.16,0.06,24.73,0.38,44.05,1.9
					c15.2,1.17,31.6,3.04,46.2,5.29c13.61,2.07,23.5,4.08,26.53,4.85h0c0.01,0,0.08,0.02,0.2,0.04c2.89,0.54,10.61,2.03,19.9,4.28
					c6.19,1.49,12.41,3.16,17.98,4.82c6.3,1.87,12.18,3.87,17,5.79L329.31,165.91z"/>
				<path class="st8" d="M24.35,160.8c-0.01,0-0.01,0-0.01,0l0.02-0.03l-0.01-0.03c0.02,0,0.18-0.06,0.42-0.15
					c6.22-2.2,18.91-6.48,34.11-10.42c10.27-2.68,20.83-4.98,30.52-6.67c10.1-1.77,19.81-2.96,27.33-3.35l0.01,0
					c0.03,0,0.1-0.01,0.21-0.02c4.46-0.32,8.82-0.56,11.68-0.71c5.05-0.26,15.27-0.69,26.99-0.72c0.7,0,1.41,0,2.12,0
					c9.02,0,18.43,0.23,26.73,0.67c8.87,0.46,15.18,1.05,17.49,1.44l-0.01,0.06c-2.31-0.39-8.61-0.98-17.48-1.44
					c-8.29-0.43-17.7-0.67-26.72-0.67c-0.71,0-1.42,0-2.12,0c-11.71,0.03-21.93,0.47-26.98,0.72c-2.87,0.15-7.22,0.39-11.68,0.71
					c-0.15,0.01-0.2,0.02-0.23,0.01v0c-7.52,0.39-17.22,1.58-27.32,3.35c-9.69,1.69-20.24,3.99-30.51,6.67
					c-15.19,3.93-27.89,8.21-34.1,10.42C24.44,160.78,24.37,160.8,24.35,160.8z"/>
				<path class="st8" d="M308.25,169.24c-4.19-1.36-12.65-3.74-23.81-6.39c-10.9-2.59-23.32-5.14-34.95-7.16
					c-21.65-3.84-41.74-5.89-45.55-6.26c-0.16-0.02-0.16-0.02-0.17-0.04l0.03-0.01l0-0.03c0.01,0,0.05,0.01,0.14,0.01
					c3.81,0.37,23.9,2.42,45.56,6.26c11.63,2.02,24.05,4.57,34.95,7.16c11.16,2.64,19.62,5.03,23.81,6.39L308.25,169.24z"/>
				<path class="st9" d="M284.29,177.07c-2.04-0.75-9.6-2.74-19.59-4.93c-10.91-2.41-23.95-4.84-35.78-6.66
					c-15.06-2.35-28.16-3.75-34.63-4.38c-5.25-0.51-10.34-0.95-15.11-1.29c-0.45-0.03-0.45-0.03-0.46-0.04l0.02-0.02l0.03,0l-0.03,0
					l0.01-0.03c0.01,0,0.17,0.01,0.43,0.03c4.78,0.34,9.86,0.78,15.11,1.29c6.47,0.63,19.57,2.03,34.63,4.38
					c11.83,1.82,24.87,4.25,35.78,6.66c9.99,2.19,17.56,4.18,19.6,4.93L284.29,177.07z"/>
			</g>
			<path class="st10" d="M285.53,161.87c-12.24-3.95-24.83-6.85-37.54-9.01c-25.44-4.29-51.34-5.77-77.21-5.37
				c-25.88,0.44-51.78,2.76-77.55,7.25c-12.88,2.27-25.74,5.08-38.55,8.78c-6.4,1.85-12.8,3.92-19.18,6.34
				c-5.77,2.19-11.54,4.65-19.98,9.06l15.28,26.46c6.41-4.07,11.35-7.47,15.85-9.7c5.31-2.63,10.84-5.06,16.49-7.31
				c11.31-4.5,23.08-8.34,35.03-11.68c23.94-6.64,48.64-11.35,73.58-14.23c24.94-2.84,50.2-3.89,75.35-2.15
				c12.57,0.89,25.11,2.5,37.46,5.19c12.34,2.7,24.52,6.46,36.01,12.02C309.66,170.85,297.75,165.83,285.53,161.87z"/>
			<path class="st11" d="M572.61,180.39c-15.31-9.62-24.7-13.7-36.84-18.34c-12.41-4.75-25.09-8.5-37.88-11.41
				c-25.59-5.81-51.51-8.25-77.22-8.56c-51.86-0.59-103.11,12.33-147.56,36.58c46.51-20.01,97.62-27.63,146.76-22.46
				c24.76,2.61,49.19,7.29,72.39,14.9c22.42,7.33,43.21,18.14,65.89,34.34L572.61,180.39z"/>
		</g>
		<g>
			<polygon points="367.29,6.24 339.98,70.45 312.48,6.24 299.3,6.24 338.7,98.07 341.67,98.07 380.33,6.24 			"/>
			<path d="M424.51,63l-4.26-2.42c-3.23-1.79-5.49-3.31-6.77-4.58c-1.28-1.27-1.93-2.6-1.93-4c0-1.62,0.71-2.92,2.13-3.9
				c1.42-0.98,3.28-1.47,5.6-1.47c3.36,0,7.43,1.19,12.23,3.58l5.12-8.86v-0.08c-6.2-3.32-12.24-4.97-18.13-4.97
				c-5.67,0-10.31,1.46-13.91,4.39c-3.6,2.92-5.4,6.7-5.4,11.32c0,3.58,1.19,6.88,3.57,9.92c2.38,3.03,7.41,6.69,15.09,10.96
				c3.84,2.18,6.34,3.85,7.49,5.01c1.16,1.16,1.73,2.61,1.73,4.35c0,1.7-0.89,3.16-2.68,4.39c-1.79,1.22-3.93,1.83-6.41,1.83
				c-2.4,0-5.36-0.73-8.87-2.19c-1.66-0.69-3.3-1.49-4.93-2.38l-5.38,9.32v0.16c4.23,2.05,7.74,3.46,10.54,4.22
				c2.79,0.76,5.98,1.15,9.56,1.15c6.06,0,11.03-1.58,14.89-4.74c3.86-3.16,5.79-7.21,5.79-12.14
				C439.57,74.95,434.55,68.67,424.51,63z"/>
			<rect x="380.06" y="37.46" width="11.91" height="60.22"/>
			<path d="M385.95,18.26c-1.83,0-3.45,0.71-4.84,2.13c-1.4,1.42-2.09,3.04-2.09,4.88c0,1.88,0.7,3.52,2.09,4.94
				c1.4,1.42,3.01,2.13,4.84,2.13c1.96,0,3.64-0.7,5.04-2.09c1.4-1.4,2.09-3.05,2.09-4.97c0-1.96-0.7-3.62-2.09-4.97
				C389.6,18.93,387.92,18.26,385.95,18.26z"/>
			<polygon points="112.63,40.15 83.21,6.24 63.44,6.24 63.44,97.68 86.21,97.68 86.21,40.6 110.91,69.27 114.34,69.27 139.04,40.6 
				139.04,97.68 161.82,97.68 161.82,6.24 142.02,6.24 			"/>
			<polygon points="213.83,35.89 199.88,67.72 186.8,35.89 166.07,35.89 190.23,87.58 172.09,127.34 192.81,127.34 234.22,35.89 			
				"/>
			<path d="M290.38,43.1c-6.74-5.68-14.96-8.52-24.65-8.52c-9.99,0-18.32,2.93-24.97,8.78c-6.66,5.85-9.98,13.63-9.98,23.33
				c0,9.52,3.26,17.26,9.79,23.23c6.52,5.96,14.91,8.94,25.17,8.94c9.47,0,17.63-2.8,24.48-8.39c6.85-5.59,10.28-13.48,10.28-23.65
				C300.49,56.69,297.12,48.78,290.38,43.1z M265.74,87.34c-9.47,0-14.21-6.88-14.21-20.65c0-6.6,1.25-11.67,3.76-15.21
				c2.51-3.54,5.99-5.31,10.44-5.31c9.29,0,13.94,6.71,13.94,20.13C279.68,80.33,275.03,87.34,265.74,87.34z"/>
			<path d="M530.72,88.9c-1.53,0.83-2.74,1.25-3.64,1.25c-1.4,0-2.09-1.03-2.09-3.08V61.48c0-5.06-0.14-8.5-0.43-10.31
				c-0.28-1.81-0.95-3.62-2-5.43c-1.05-1.81-2.23-3.26-3.53-4.35c-3.93-3.4-9.14-5.11-15.64-5.11c-8.68,0-15.34,2.73-19.96,8.18
				v0.05l4.85,8.4c4.61-3.67,9.32-5.51,14.13-5.51c7.24,0,10.87,3.62,10.87,10.87v3.21l-15.25,5.24c-5.02,1.75-8.89,4.11-11.62,7.1
				c-2.73,2.99-4.09,6.38-4.09,10.18c0,4.19,1.4,7.67,4.19,10.44c2.79,2.77,6.28,4.16,10.47,4.16c5.72,0,11.1-1.96,16.17-5.89
				c0.92,4.02,3.93,6.02,9.03,6.02c1.79,0,3.5-0.32,5.14-0.95c1.63-0.63,3.79-1.81,6.49-3.55L530.72,88.9z M513.26,85.77
				c-3.23,3.1-6.74,4.65-10.54,4.65c-2.53,0-4.59-0.78-6.19-2.36c-1.59-1.57-2.39-3.6-2.39-6.09c0-2.44,0.84-4.48,2.52-6.12
				c1.68-1.64,4.55-3.26,8.61-4.88l7.98-3.08V85.77z"/>
			<path d="M467.17,87.99c-5.72,0-8.58-3.44-8.58-10.32V50.91h12.67l5.81-10.06H458.6V25.02l-0.01,0.01v-0.04h-4.75l-14.96,25.91
				h7.81v24c0,5.45,0.25,9.15,0.75,11.09c0.5,1.94,1.12,3.51,1.87,4.71c0.74,1.2,1.68,2.28,2.81,3.24
				c3.62,3.19,8.16,4.78,13.61,4.78c5.18,0,9.98-1.19,14.4-3.56l-5.03-8.71C472.38,87.47,469.73,87.99,467.17,87.99z"/>
		</g>
	</g>
	<g>
		<path d="M533.76,30.51c0,2.72-2.19,4.87-4.96,4.87s-4.99-2.16-4.99-4.87s2.21-4.84,5.02-4.84
			C531.57,25.67,533.76,27.8,533.76,30.51z M525.05,30.51c0,2.16,1.62,3.87,3.78,3.87c2.1,0.03,3.69-1.71,3.69-3.84
			c0-2.16-1.59-3.9-3.75-3.9C526.67,26.64,525.05,28.39,525.05,30.51z M528.03,33.02h-1.12v-4.84c0.44-0.06,1.06-0.15,1.86-0.15
			c0.91,0,1.33,0.15,1.65,0.38c0.3,0.21,0.5,0.56,0.5,1.03c0,0.59-0.44,0.97-1,1.15v0.06c0.47,0.15,0.71,0.53,0.86,1.18
			c0.15,0.74,0.27,1,0.35,1.18h-1.18c-0.15-0.18-0.24-0.59-0.38-1.18c-0.09-0.5-0.38-0.74-1-0.74h-0.53V33.02z M528.06,30.31h0.53
			c0.62,0,1.12-0.21,1.12-0.71c0-0.44-0.33-0.74-1.03-0.74c-0.3,0-0.5,0.03-0.62,0.06V30.31z"/>
	</g>
</g>
<g>
	<path d="M115.08,294.15h-6.75v-43.71h6.75V294.15z"/>
	<path d="M178.63,250.44v43.71h-3.37c-0.53,0-0.98-0.08-1.34-0.24c-0.36-0.16-0.71-0.44-1.06-0.82l-28.84-32.94
		c0.05,0.51,0.08,1.01,0.1,1.49c0.02,0.49,0.04,0.95,0.04,1.37v31.14h-5.91v-43.71h3.48c0.3,0,0.56,0.02,0.77,0.05
		s0.39,0.08,0.56,0.15c0.16,0.07,0.32,0.17,0.49,0.31c0.16,0.13,0.34,0.3,0.52,0.5l28.84,32.91c-0.05-0.53-0.09-1.04-0.12-1.54
		c-0.03-0.5-0.05-0.97-0.05-1.42v-30.96H178.63z"/>
	<path d="M227.3,257.27c-0.21,0.3-0.43,0.53-0.68,0.69c-0.24,0.15-0.54,0.23-0.89,0.23c-0.39,0-0.86-0.17-1.39-0.52
		s-1.2-0.73-2-1.14c-0.8-0.42-1.76-0.8-2.89-1.14c-1.12-0.35-2.49-0.52-4.09-0.52c-1.51,0-2.83,0.18-3.98,0.53
		c-1.15,0.36-2.11,0.84-2.89,1.45c-0.78,0.61-1.36,1.33-1.76,2.15c-0.39,0.82-0.59,1.71-0.59,2.67c0,1.22,0.34,2.23,1.03,3.04
		c0.68,0.8,1.59,1.49,2.71,2.06c1.12,0.57,2.4,1.06,3.83,1.48c1.43,0.42,2.89,0.85,4.38,1.3c1.5,0.45,2.96,0.95,4.38,1.51
		c1.43,0.56,2.7,1.27,3.83,2.12c1.12,0.85,2.03,1.9,2.71,3.14c0.68,1.24,1.03,2.77,1.03,4.58c0,1.91-0.37,3.71-1.11,5.38
		s-1.83,3.14-3.25,4.38c-1.43,1.24-3.18,2.22-5.25,2.93c-2.08,0.71-4.43,1.07-7.08,1.07c-3.25,0-6.19-0.51-8.83-1.54
		c-2.64-1.03-4.91-2.42-6.78-4.16l1.95-2.81c0.18-0.22,0.41-0.41,0.68-0.56c0.27-0.15,0.56-0.23,0.89-0.23
		c0.3,0,0.64,0.11,1.03,0.32c0.38,0.21,0.82,0.48,1.3,0.81s1.04,0.68,1.67,1.07c0.63,0.39,1.34,0.74,2.14,1.07s1.71,0.59,2.73,0.81
		c1.02,0.21,2.17,0.32,3.44,0.32c1.6,0,3.03-0.19,4.28-0.58c1.25-0.39,2.31-0.93,3.18-1.63c0.87-0.7,1.54-1.54,2-2.52
		c0.46-0.98,0.7-2.06,0.7-3.26c0-1.32-0.34-2.4-1.03-3.25c-0.68-0.84-1.58-1.55-2.7-2.12c-1.11-0.57-2.39-1.05-3.83-1.45
		c-1.44-0.4-2.9-0.8-4.38-1.22c-1.48-0.42-2.95-0.9-4.38-1.45c-1.44-0.55-2.71-1.26-3.83-2.13c-1.11-0.87-2.01-1.97-2.7-3.28
		c-0.68-1.31-1.03-2.93-1.03-4.86c0-1.54,0.34-3.04,1.03-4.48c0.68-1.44,1.68-2.72,2.99-3.84c1.31-1.12,2.92-2.01,4.83-2.68
		s4.11-1.01,6.59-1.01c2.78,0,5.32,0.39,7.6,1.16c2.28,0.77,4.3,1.89,6.04,3.36L227.3,257.27z"/>
	<path d="M256.72,294.15h-6.75v-43.71h6.75V294.15z"/>
	<path d="M320.38,273.13v16.77c-2.5,1.59-5.18,2.77-8.02,3.55c-2.84,0.78-5.95,1.17-9.34,1.17c-4.01,0-7.63-0.54-10.85-1.63
		c-3.22-1.09-5.98-2.61-8.26-4.58c-2.28-1.96-4.04-4.32-5.27-7.06c-1.23-2.74-1.84-5.76-1.84-9.06c0-3.33,0.6-6.37,1.79-9.12
		c1.19-2.75,2.89-5.1,5.1-7.06c2.2-1.96,4.88-3.48,8.04-4.56c3.15-1.08,6.68-1.62,10.57-1.62c1.97,0,3.8,0.13,5.5,0.38
		c1.69,0.25,3.26,0.62,4.7,1.1c1.44,0.48,2.77,1.06,4,1.74c1.23,0.68,2.38,1.45,3.44,2.3l-1.91,2.68c-0.3,0.41-0.69,0.67-1.17,0.78
		c-0.48,0.11-1,0.02-1.58-0.29c-0.56-0.28-1.19-0.63-1.91-1.04c-0.72-0.41-1.59-0.8-2.63-1.17c-1.03-0.38-2.25-0.7-3.65-0.96
		c-1.4-0.26-3.07-0.4-4.99-0.4c-2.81,0-5.34,0.4-7.62,1.21c-2.27,0.8-4.21,1.95-5.81,3.45c-1.6,1.49-2.83,3.3-3.69,5.43
		c-0.86,2.12-1.29,4.51-1.29,7.15c0,2.75,0.45,5.2,1.34,7.37s2.17,4.01,3.83,5.52s3.67,2.67,6.04,3.46s5.02,1.19,7.97,1.19
		c2.32,0,4.38-0.23,6.17-0.69c1.8-0.46,3.55-1.09,5.27-1.91v-9.61h-7.76c-0.44,0-0.79-0.11-1.06-0.33s-0.4-0.5-0.4-0.82v-3.35
		H320.38z"/>
	<path d="M381.53,250.44v43.71h-6.75v-19.88h-26.89v19.88h-6.75v-43.71h6.75v19.49h26.89v-19.49H381.53z"/>
	<path d="M438.4,255.41h-16.14v38.73h-6.71v-38.73h-16.17v-4.97h39.03V255.41z"/>
	<path d="M481.5,257.27c-0.21,0.3-0.43,0.53-0.68,0.69c-0.24,0.15-0.54,0.23-0.89,0.23c-0.39,0-0.86-0.17-1.39-0.52
		s-1.2-0.73-2-1.14c-0.8-0.42-1.76-0.8-2.89-1.14c-1.12-0.35-2.49-0.52-4.09-0.52c-1.51,0-2.83,0.18-3.98,0.53
		c-1.15,0.36-2.11,0.84-2.89,1.45c-0.78,0.61-1.36,1.33-1.76,2.15c-0.39,0.82-0.59,1.71-0.59,2.67c0,1.22,0.34,2.23,1.03,3.04
		c0.68,0.8,1.59,1.49,2.71,2.06c1.12,0.57,2.4,1.06,3.83,1.48c1.43,0.42,2.89,0.85,4.38,1.3c1.5,0.45,2.96,0.95,4.38,1.51
		c1.43,0.56,2.7,1.27,3.83,2.12c1.12,0.85,2.03,1.9,2.71,3.14c0.68,1.24,1.03,2.77,1.03,4.58c0,1.91-0.37,3.71-1.11,5.38
		s-1.83,3.14-3.25,4.38c-1.43,1.24-3.18,2.22-5.25,2.93c-2.08,0.71-4.43,1.07-7.08,1.07c-3.25,0-6.19-0.51-8.83-1.54
		c-2.64-1.03-4.91-2.42-6.78-4.16l1.95-2.81c0.18-0.22,0.41-0.41,0.68-0.56c0.27-0.15,0.56-0.23,0.89-0.23
		c0.3,0,0.64,0.11,1.03,0.32c0.38,0.21,0.82,0.48,1.3,0.81s1.04,0.68,1.67,1.07c0.63,0.39,1.34,0.74,2.14,1.07s1.71,0.59,2.73,0.81
		c1.02,0.21,2.17,0.32,3.44,0.32c1.6,0,3.03-0.19,4.28-0.58c1.25-0.39,2.31-0.93,3.18-1.63c0.87-0.7,1.54-1.54,2-2.52
		c0.46-0.98,0.7-2.06,0.7-3.26c0-1.32-0.34-2.4-1.03-3.25c-0.68-0.84-1.58-1.55-2.7-2.12c-1.11-0.57-2.39-1.05-3.83-1.45
		c-1.44-0.4-2.9-0.8-4.38-1.22c-1.48-0.42-2.95-0.9-4.38-1.45c-1.44-0.55-2.71-1.26-3.83-2.13c-1.11-0.87-2.01-1.97-2.7-3.28
		c-0.68-1.31-1.03-2.93-1.03-4.86c0-1.54,0.34-3.04,1.03-4.48c0.68-1.44,1.68-2.72,2.99-3.84c1.31-1.12,2.92-2.01,4.83-2.68
		s4.11-1.01,6.59-1.01c2.78,0,5.32,0.39,7.6,1.16c2.28,0.77,4.3,1.89,6.04,3.36L481.5,257.27z"/>
</g>
<line class="st12" x1="185.39" y1="224.17" x2="404.9" y2="224.17"/>
<g>
	<rect x="490.65" y="250.07" class="st13" width="109.38" height="75"/>
	<path d="M495.55,252.71h-4.92v-1.78h11.98v1.78h-4.94v14.4h-2.11V252.71z"/>
	<path d="M518.04,260.01c-0.12-2.26-0.26-4.97-0.24-6.98h-0.07c-0.55,1.9-1.22,3.91-2.04,6.14l-2.86,7.85h-1.58l-2.62-7.71
		c-0.77-2.28-1.42-4.37-1.87-6.29h-0.05c-0.05,2.02-0.17,4.73-0.31,7.15l-0.43,6.94h-1.99l1.13-16.18h2.66l2.76,7.83
		c0.67,1.99,1.22,3.77,1.63,5.45h0.07c0.41-1.63,0.98-3.41,1.7-5.45l2.88-7.83h2.66l1.01,16.18h-2.04L518.04,260.01z"/>
</g>
<g>
</g>
<g>
</g>
<g>
</g>
<g>
</g>
<g>
</g>
<g>
</g>
</svg>
