<?xml version="1.0" encoding="utf-8"?>
<!-- Generator: Adobe Illustrator 28.2.0, SVG Export Plug-In . SVG Version: 6.00 Build 0)  -->
<svg version="1.1" baseProfile="basic" id="Artwork"
	 xmlns="http://www.w3.org/2000/svg" xmlns:xlink="http://www.w3.org/1999/xlink" x="0px" y="0px" viewBox="0 0 586.26 293.16"
	 xml:space="preserve">
<style type="text/css">
	.st0{fill:#FFFFFF;}
	.st1{fill:none;}
	.st2{fill:url(#SVGID_1_);}
	.st3{fill:url(#SVGID_00000057146050417043665800000002846974790468464280_);}
	.st4{fill:url(#SVGID_00000105400890738702629010000010190013420093811107_);}
	.st5{fill:url(#SVGID_00000083793802766238217190000005772331172838606525_);}
	.st6{opacity:0.7;}
	.st7{fill:#ED1C26;}
	.st8{fill:#F6977B;}
	.st9{opacity:0.83;}
	.st10{fill:#4DC4F1;}
	.st11{fill:#ADDEF8;}
	.st12{opacity:0.83;fill:#368CAD;}
	.st13{opacity:0.72;fill:#C2151D;}
</style>
<g>
	<path class="st0" d="M113.85,292.05h-6.75v-43.71h6.75V292.05z"/>
	<path class="st0" d="M177.4,248.35v43.71h-3.37c-0.53,0-0.98-0.08-1.34-0.24c-0.36-0.16-0.71-0.44-1.06-0.82l-28.84-32.94
		c0.05,0.51,0.08,1.01,0.1,1.49c0.02,0.49,0.04,0.95,0.04,1.37v31.14h-5.91v-43.71h3.48c0.3,0,0.56,0.02,0.77,0.05
		s0.39,0.08,0.56,0.15c0.16,0.07,0.32,0.17,0.49,0.31c0.16,0.13,0.34,0.3,0.52,0.5l28.84,32.91c-0.05-0.53-0.09-1.04-0.12-1.54
		c-0.03-0.5-0.05-0.97-0.05-1.42v-30.96H177.4z"/>
	<path class="st0" d="M226.06,255.18c-0.21,0.3-0.43,0.53-0.68,0.69c-0.24,0.15-0.54,0.23-0.89,0.23c-0.39,0-0.86-0.17-1.39-0.52
		s-1.2-0.73-2-1.14c-0.8-0.42-1.76-0.8-2.89-1.14c-1.12-0.35-2.49-0.52-4.09-0.52c-1.51,0-2.83,0.18-3.98,0.53
		c-1.15,0.36-2.11,0.84-2.89,1.45c-0.78,0.61-1.36,1.33-1.76,2.15c-0.39,0.82-0.59,1.71-0.59,2.67c0,1.22,0.34,2.23,1.03,3.04
		c0.68,0.8,1.59,1.49,2.71,2.06c1.12,0.57,2.4,1.06,3.83,1.48c1.43,0.42,2.89,0.85,4.38,1.3c1.5,0.45,2.96,0.95,4.38,1.51
		c1.43,0.56,2.7,1.27,3.83,2.12c1.12,0.85,2.03,1.9,2.71,3.14c0.68,1.24,1.03,2.77,1.03,4.58c0,1.91-0.37,3.71-1.11,5.38
		s-1.83,3.14-3.25,4.38c-1.43,1.24-3.18,2.22-5.25,2.93c-2.08,0.71-4.43,1.07-7.08,1.07c-3.25,0-6.19-0.51-8.83-1.54
		c-2.64-1.03-4.91-2.42-6.78-4.16l1.95-2.81c0.18-0.22,0.41-0.41,0.68-0.56c0.27-0.15,0.56-0.23,0.89-0.23
		c0.3,0,0.64,0.11,1.03,0.32c0.38,0.21,0.82,0.48,1.3,0.81s1.04,0.68,1.67,1.07c0.63,0.39,1.34,0.74,2.14,1.07s1.71,0.59,2.73,0.81
		c1.02,0.21,2.17,0.32,3.44,0.32c1.6,0,3.03-0.19,4.28-0.58c1.25-0.39,2.31-0.93,3.18-1.63c0.87-0.7,1.54-1.54,2-2.52
		c0.46-0.98,0.7-2.06,0.7-3.26c0-1.32-0.34-2.4-1.03-3.25c-0.68-0.84-1.58-1.55-2.7-2.12c-1.11-0.57-2.39-1.05-3.83-1.45
		c-1.44-0.4-2.9-0.8-4.38-1.22c-1.48-0.42-2.95-0.9-4.38-1.45c-1.44-0.55-2.71-1.26-3.83-2.13c-1.11-0.87-2.01-1.97-2.7-3.28
		c-0.68-1.31-1.03-2.93-1.03-4.86c0-1.54,0.34-3.04,1.03-4.48c0.68-1.44,1.68-2.72,2.99-3.84c1.31-1.12,2.92-2.01,4.83-2.68
		s4.11-1.01,6.59-1.01c2.78,0,5.32,0.39,7.6,1.16c2.28,0.77,4.3,1.89,6.04,3.36L226.06,255.18z"/>
	<path class="st0" d="M255.49,292.05h-6.75v-43.71h6.75V292.05z"/>
	<path class="st0" d="M319.14,271.04v16.77c-2.5,1.59-5.18,2.77-8.02,3.55c-2.84,0.78-5.95,1.17-9.34,1.17
		c-4.01,0-7.63-0.54-10.85-1.63c-3.22-1.09-5.98-2.61-8.26-4.58c-2.28-1.96-4.04-4.32-5.27-7.06c-1.23-2.74-1.84-5.76-1.84-9.06
		c0-3.33,0.6-6.37,1.79-9.12c1.19-2.75,2.89-5.1,5.1-7.06c2.2-1.96,4.88-3.48,8.04-4.56c3.15-1.08,6.68-1.62,10.57-1.62
		c1.97,0,3.8,0.13,5.5,0.38c1.69,0.25,3.26,0.62,4.7,1.1c1.44,0.48,2.77,1.06,4,1.74c1.23,0.68,2.38,1.45,3.44,2.3l-1.91,2.68
		c-0.3,0.41-0.69,0.67-1.17,0.78c-0.48,0.11-1,0.02-1.58-0.29c-0.56-0.28-1.19-0.63-1.91-1.04c-0.72-0.41-1.59-0.8-2.63-1.17
		c-1.03-0.38-2.25-0.7-3.65-0.96c-1.4-0.26-3.07-0.4-4.99-0.4c-2.81,0-5.34,0.4-7.62,1.21c-2.27,0.8-4.21,1.95-5.81,3.45
		c-1.6,1.49-2.83,3.3-3.69,5.43c-0.86,2.12-1.29,4.51-1.29,7.15c0,2.75,0.45,5.2,1.34,7.37s2.17,4.01,3.83,5.52s3.67,2.67,6.04,3.46
		s5.02,1.19,7.97,1.19c2.32,0,4.38-0.23,6.17-0.69c1.8-0.46,3.55-1.09,5.27-1.91v-9.61h-7.76c-0.44,0-0.79-0.11-1.06-0.33
		s-0.4-0.5-0.4-0.82v-3.35H319.14z"/>
	<path class="st0" d="M380.29,248.35v43.71h-6.75v-19.88h-26.89v19.88h-6.75v-43.71h6.75v19.49h26.89v-19.49H380.29z"/>
	<path class="st0" d="M437.16,253.32h-16.14v38.73h-6.71v-38.73h-16.17v-4.97h39.03V253.32z"/>
	<path class="st0" d="M480.26,255.18c-0.21,0.3-0.43,0.53-0.68,0.69c-0.24,0.15-0.54,0.23-0.89,0.23c-0.39,0-0.86-0.17-1.39-0.52
		s-1.2-0.73-2-1.14c-0.8-0.42-1.76-0.8-2.89-1.14c-1.12-0.35-2.49-0.52-4.09-0.52c-1.51,0-2.83,0.18-3.98,0.53
		c-1.15,0.36-2.11,0.84-2.89,1.45c-0.78,0.61-1.36,1.33-1.76,2.15c-0.39,0.82-0.59,1.71-0.59,2.67c0,1.22,0.34,2.23,1.03,3.04
		c0.68,0.8,1.59,1.49,2.71,2.06c1.12,0.57,2.4,1.06,3.83,1.48c1.43,0.42,2.89,0.85,4.38,1.3c1.5,0.45,2.96,0.95,4.38,1.51
		c1.43,0.56,2.7,1.27,3.83,2.12c1.12,0.85,2.03,1.9,2.71,3.14c0.68,1.24,1.03,2.77,1.03,4.58c0,1.91-0.37,3.71-1.11,5.38
		s-1.83,3.14-3.25,4.38c-1.43,1.24-3.18,2.22-5.25,2.93c-2.08,0.71-4.43,1.07-7.08,1.07c-3.25,0-6.19-0.51-8.83-1.54
		c-2.64-1.03-4.91-2.42-6.78-4.16l1.95-2.81c0.18-0.22,0.41-0.41,0.68-0.56c0.27-0.15,0.56-0.23,0.89-0.23
		c0.3,0,0.64,0.11,1.03,0.32c0.38,0.21,0.82,0.48,1.3,0.81s1.04,0.68,1.67,1.07c0.63,0.39,1.34,0.74,2.14,1.07s1.71,0.59,2.73,0.81
		c1.02,0.21,2.17,0.32,3.44,0.32c1.6,0,3.03-0.19,4.28-0.58c1.25-0.39,2.31-0.93,3.18-1.63c0.87-0.7,1.54-1.54,2-2.52
		c0.46-0.98,0.7-2.06,0.7-3.26c0-1.32-0.34-2.4-1.03-3.25c-0.68-0.84-1.58-1.55-2.7-2.12c-1.11-0.57-2.39-1.05-3.83-1.45
		c-1.44-0.4-2.9-0.8-4.38-1.22c-1.48-0.42-2.95-0.9-4.38-1.45c-1.44-0.55-2.71-1.26-3.83-2.13c-1.11-0.87-2.01-1.97-2.7-3.28
		c-0.68-1.31-1.03-2.93-1.03-4.86c0-1.54,0.34-3.04,1.03-4.48c0.68-1.44,1.68-2.72,2.99-3.84c1.31-1.12,2.92-2.01,4.83-2.68
		s4.11-1.01,6.59-1.01c2.78,0,5.32,0.39,7.6,1.16c2.28,0.77,4.3,1.89,6.04,3.36L480.26,255.18z"/>
</g>
<line class="st0" x1="184.16" y1="222.08" x2="403.67" y2="222.08"/>
<g>
	<rect x="489.42" y="247.98" class="st1" width="89.56" height="34.83"/>
	<path class="st0" d="M494.31,250.62h-4.92v-1.78h11.98v1.78h-4.94v14.4h-2.11V250.62z"/>
	<path class="st0" d="M516.8,257.92c-0.12-2.26-0.26-4.97-0.24-6.98h-0.07c-0.55,1.9-1.22,3.91-2.04,6.14l-2.86,7.85h-1.58
		l-2.62-7.71c-0.77-2.28-1.42-4.37-1.87-6.29h-0.05c-0.05,2.02-0.17,4.73-0.31,7.15l-0.43,6.94h-1.99l1.13-16.18h2.66l2.76,7.83
		c0.67,1.99,1.22,3.77,1.63,5.45h0.07c0.41-1.63,0.98-3.41,1.7-5.45l2.88-7.83h2.66l1.01,16.18h-2.04L516.8,257.92z"/>
</g>
<g>
	<g>
		<g>
			<linearGradient id="SVGID_1_" gradientUnits="userSpaceOnUse" x1="9.3892" y1="168.3795" x2="391.7709" y2="168.3795">
				<stop  offset="0" style="stop-color:#1E6F91"/>
				<stop  offset="0" style="stop-color:#257898"/>
				<stop  offset="0.1882" style="stop-color:#4FBDC8"/>
				<stop  offset="1" style="stop-color:#FFFFFF"/>
			</linearGradient>
			<path class="st2" d="M9.39,153.57l27.24,47.18c195.26-75.76,355.14,0.9,355.14,0.9C225.35,90.48,15.35,151.8,9.39,153.57z"/>
			
				<linearGradient id="SVGID_00000108997375866994255540000012954771194680799623_" gradientUnits="userSpaceOnUse" x1="9.3915" y1="167.9427" x2="164.1383" y2="167.9427">
				<stop  offset="0" style="stop-color:#37003F"/>
				<stop  offset="0.1552" style="stop-color:#3B0948"/>
				<stop  offset="0.4643" style="stop-color:#403260"/>
				<stop  offset="0.8948" style="stop-color:#316388"/>
				<stop  offset="1" style="stop-color:#1E6F91"/>
			</linearGradient>
			<path style="fill:url(#SVGID_00000108997375866994255540000012954771194680799623_);" d="M36.69,200.86
				c8.47-13.24,45.2-62.17,127.44-65.63c0,0-73.21-3.55-154.75,18.34L36.69,200.86z"/>
			
				<linearGradient id="SVGID_00000183226156595510120460000007851434575709139622_" gradientUnits="userSpaceOnUse" x1="200.5123" y1="168.3795" x2="582.973" y2="168.3795">
				<stop  offset="0" style="stop-color:#FFFFFF"/>
				<stop  offset="0.0671" style="stop-color:#FEF2EC"/>
				<stop  offset="0.1869" style="stop-color:#FCD9C9"/>
				<stop  offset="0.3455" style="stop-color:#F7B097"/>
				<stop  offset="0.5369" style="stop-color:#F07C5E"/>
				<stop  offset="0.7542" style="stop-color:#E82826"/>
				<stop  offset="0.7718" style="stop-color:#E81C23"/>
				<stop  offset="1" style="stop-color:#A21D1E"/>
			</linearGradient>
			<path style="fill:url(#SVGID_00000183226156595510120460000007851434575709139622_);" d="M582.97,153.59
				c-3.78-1.13-215.15-63.71-382.46,48.05c0,0,159.92-76.68,355.22-0.87L582.97,153.59z"/>
			
				<linearGradient id="SVGID_00000131353818344655377720000004056499424374744238_" gradientUnits="userSpaceOnUse" x1="582.974" y1="168.0207" x2="454.4847" y2="168.0207">
				<stop  offset="0" style="stop-color:#690031"/>
				<stop  offset="1" style="stop-color:#EA2529"/>
			</linearGradient>
			<path style="fill:url(#SVGID_00000131353818344655377720000004056499424374744238_);" d="M582.97,153.59
				c-50.13-17.24-128.49-18.27-128.49-18.27c30.5,0,88.65,53.44,101.28,65.4L582.97,153.59z"/>
			<g class="st6">
				<path class="st7" d="M558.23,179.75c1.58,0.45,4.56,1.42,8.13,2.62l11.95-20.7c-3.79-1.2-6.59-1.94-6.59-1.94
					c-17.71-4.67-34.68-7.97-50.77-10.34c-16.09-2.37-31.29-3.8-45.53-4.67c-28.48-1.7-53.11-1.21-73.36-0.34
					c-20.25,0.9-36.14,2.22-47.01,3.08c-10.86,0.9-16.7,1.34-16.7,1.32c-9.69,1.74-16.32,3.06-20.85,3.9
					c-4.53,0.85-6.95,1.24-8.17,1.34c-2.45,0.2,6.7-0.49,12.38-0.75l11.14-0.54c-2.68,0.17-5.36,0.35-8.04,0.56
					c-4.56,0.81-9.11,1.67-13.65,2.6c2.89-0.23,5.78-0.43,8.67-0.62c-2.38,0.71-8.16,1.62-13.34,2.46l-9.77,1.55
					c6.87-0.54,11.27-0.73,21.87-1.93c10.6-1.21,23.62-2.59,36.26-3.49c12.65-0.93,24.92-1.38,34.02-1.5
					c9.1-0.13,15.03,0.01,15.03-0.01c-2.26,1.04-10.38,1.72-21.26,2.68c-10.88,0.94-24.54,2.24-37.88,3.98
					c-13.34,1.72-26.37,3.86-36.04,5.66c-9.67,1.8-16,3.17-16,3.16c5.3-0.45,10.31-1.02,21.33-2.56
					c11.02-1.56,24.94-3.34,38.61-4.54c13.67-1.23,27.08-1.87,37.06-2.06c9.98-0.2,16.53-0.06,16.53-0.08
					c-1.72,0.43-9.85,0.59-21.09,1.17c-11.24,0.56-25.6,1.62-39.72,3.3c-14.12,1.65-27.99,3.88-38.31,5.81
					c-10.32,1.92-17.09,3.44-17.09,3.43c4.26-0.33,16.69-2.78,34.82-5.67c9.07-1.44,19.35-2.9,30.21-4.1
					c10.86-1.2,22.28-2.13,33.6-2.66c11.32-0.53,22.53-0.65,32.96-0.39c10.43,0.24,20.07,0.85,28.26,1.59
					c16.4,1.49,27.04,3.4,27.04,3.36c11.79,1.76,22.08,3.11,29.47,4.05c7.39,0.94,11.87,1.4,11.87,1.39
					c10.91,2.17,19.29,4.27,25.74,5.97C550.48,177.55,555.02,178.86,558.23,179.75z"/>
				<path class="st8" d="M565.3,184.21c-0.02,0-0.06-0.01-0.24-0.08c-2.17-0.8-4.83-1.72-7.92-2.73
					c-7.71-2.52-15.59-4.79-23.42-6.75c-10.67-2.68-22.23-5-33.41-6.71c-12.25-1.89-25.15-3.25-38.35-4.04v0c0,0,0,0,0,0
					c-0.04,0-0.16-0.01-0.61-0.07c-5.49-0.63-11.28-1.16-17.22-1.58c-12.5-0.9-27.23-1.24-40.41-0.93
					c-13.43,0.29-28.63,1.29-42.81,2.84c-7.6,0.82-13.97,1.65-18.63,2.26c-2.92,0.38-5.02,0.66-6.21,0.77l0-0.01
					c-0.05,0.02-0.2,0.04-0.61,0.11c-6.18,0.99-12.33,2.02-18.27,3.06c-3.88,0.67-7.98,1.41-12.33,2.19
					c-7.39,1.33-15.03,2.71-21.33,3.67l-0.01-0.06c6.3-0.96,13.94-2.34,21.33-3.67c4.35-0.78,8.45-1.52,12.33-2.19
					c5.94-1.03,12.08-2.06,18.27-3.06c0.31-0.05,0.51-0.08,0.58-0.09v0l0.03,0c1.19-0.11,3.29-0.39,6.21-0.77
					c4.66-0.61,11.04-1.44,18.63-2.26c14.18-1.54,29.39-2.55,42.82-2.84c13.19-0.32,27.92,0.02,40.42,0.93
					c5.94,0.42,11.73,0.95,17.22,1.58c0.3,0.03,0.51,0.06,0.58,0.06l0.03,0c13.2,0.79,26.1,2.15,38.35,4.04
					c11.19,1.71,22.74,4.03,33.42,6.71c7.84,1.96,15.72,4.23,23.43,6.75c3.09,1.01,5.76,1.93,7.93,2.74
					c0.13,0.05,0.21,0.08,0.22,0.08l-0.01,0.03l0,0L565.3,184.21C565.31,184.2,565.3,184.21,565.3,184.21z"/>
				<path class="st7" d="M565.3,184.21c-0.02,0-0.11-0.03-0.57-0.17c-9.8-3.1-20.79-6.06-30.96-8.33c-8.38-1.9-18.07-3.78-28-5.43
					c-4.69-0.79-9.15-1.48-13.47-2.14c-4.08-0.63-7.93-1.23-11.26-1.8l0-0.01c-0.04,0-0.15-0.02-0.4-0.05
					c-1.24-0.19-5-0.76-10.35-1.44c-4.49-0.57-13.64-1.62-24.5-2.32c-10.26-0.68-20-0.91-26.38-0.99c-3.08-0.04-5.86-0.05-8.3-0.07
					c-3.73-0.02-6.42-0.03-7.81-0.12l0-0.06c1.39,0.09,4.08,0.1,7.81,0.12c2.45,0.01,5.22,0.03,8.31,0.07
					c6.37,0.08,16.12,0.31,26.38,0.99c10.86,0.7,20.01,1.75,24.5,2.32c5.35,0.67,9.11,1.25,10.35,1.44
					c0.18,0.03,0.32,0.05,0.37,0.06v0l0.03,0.01c3.33,0.57,7.18,1.17,11.26,1.8c4.31,0.67,8.78,1.36,13.47,2.14
					c9.94,1.65,19.62,3.53,28,5.43c10.16,2.27,21.16,5.23,30.96,8.33c0.32,0.1,0.53,0.17,0.55,0.17l-0.01,0.03l0,0l0.02,0.02
					C565.31,184.2,565.31,184.21,565.3,184.21z"/>
				<path class="st7" d="M299.71,164.19l-0.01-0.06c1.83-0.28,4.37-0.71,7.3-1.2c4.43-0.75,9.94-1.67,16.08-2.62
					c11.25-1.74,23.27-3.26,33.86-4.27c13.47-1.32,24.92-1.86,30.54-2.07c4.57-0.17,8.92-0.28,12.93-0.32c0.19,0,0.32,0,0.33,0
					l0,0.03h0.03c0,0.03,0,0.03-0.36,0.03c-4.01,0.04-8.36,0.15-12.93,0.32c-5.62,0.21-17.06,0.75-30.53,2.07
					c-10.59,1.02-22.61,2.53-33.86,4.27c-6.14,0.94-11.65,1.87-16.08,2.62C304.08,163.49,301.55,163.91,299.71,164.19z"/>
			</g>
			<g class="st9">
				<path class="st10" d="M225.73,146.89c11.31,1,25.42,2.98,39.12,5.53c13.7,2.52,26.98,5.6,36.8,8.12
					c9.81,2.51,16.21,4.41,16.21,4.4c-1.86-1.28-9.88-4.12-20.96-7.29c-11.09-3.18-25.28-6.63-39.36-9.44
					c-14.08-2.83-28.03-5.02-38.47-6.39c-10.44-1.38-17.36-2.03-17.36-2.04c1.85-0.28,10.47,0.26,22.3,1.66
					c11.83,1.39,26.84,3.73,41.49,6.63c14.65,2.87,28.94,6.3,39.52,9.09c10.57,2.78,17.53,4.9,17.52,4.89
					c-1.57-0.85-5.75-2.32-11.87-4.12c-6.11-1.79-14.19-3.91-23.58-6.05c-9.39-2.15-20.09-4.3-31.44-6.23
					c-11.35-1.93-23.34-3.62-35.28-4.93c-11.94-1.32-23.81-2.28-34.91-2.87c-11.1-0.6-21.41-0.85-30.23-0.88
					c-17.64-0.06-29.25,0.62-29.25,0.59c-12.82,0.7-23.88,2.58-31.68,4.29c-7.81,1.7-12.38,3.19-12.38,3.19
					c-11.62,2.37-20.49,4.62-27.3,6.49c-6.81,1.88-11.54,3.39-14.85,4.52c-4.25,1.46-15.96,5.89-23.81,8.88l12.35,21.38
					c6.57-1.97,12.28-4.5,12.28-4.5c15.87-6.45,31.63-11.5,46.88-15.38c15.26-3.88,30.03-6.61,44.01-8.45
					c27.99-3.67,52.8-3.82,73.08-2.61c20.31,1.22,36.13,3.77,46.83,5.85c10.7,2.11,16.31,3.74,16.31,3.73
					c9.71,1.46,16.33,2.75,20.82,3.71c4.49,0.97,7.78,2.8,7.78,2.8c-0.59-0.86-6.06-3.1-11.44-5.03c-5-1.81-9.89-3.35-10.55-3.56
					c2.56,0.77,5.12,1.55,7.68,2.35c4.56,0.92,9.1,1.88,13.64,2.89c-2.74-0.99-5.49-1.97-8.25-2.93c2.49,0.23,8.22,1.67,13.29,3.13
					c5.08,1.45,9.51,2.91,9.51,2.91c-3.55-1.82-10.44-4.54-20.81-7.61c-10.37-3.08-23.3-6.3-36-8.93
					c-12.7-2.65-25.15-4.7-34.44-6.01c-9.29-1.32-15.39-1.97-15.39-1.97C205.95,145.79,214.43,145.88,225.73,146.89z"/>
				<path class="st11" d="M330.46,161.86c-4.75-1.88-10.54-3.85-16.73-5.7c-5.48-1.63-11.6-3.28-17.7-4.75
					c-9.14-2.21-16.74-3.68-19.59-4.21c-0.12-0.02-0.18-0.03-0.2-0.04l0,0c-2.98-0.76-12.71-2.73-26.11-4.77
					c-14.36-2.21-30.51-4.05-45.47-5.2c-19.02-1.49-35.33-1.81-43.36-1.87c-6.41-0.05-12.68-0.01-18.65,0.13
					c-0.47,0.01-0.61,0.01-0.66,0.01l0,0c-13.76,1.07-27.66,2.72-41.29,4.91c-11.99,1.91-24.05,4.28-35.86,7.05
					c-11.84,2.78-23.18,5.86-33.71,9.16c-0.86,0.27-0.86,0.26-0.88,0.26l-0.01-0.01l0-0.01l0.03-0.01l0-0.03
					c0.03,0,0.35-0.11,0.85-0.26c10.53-3.29,21.87-6.38,33.72-9.16c11.81-2.77,23.87-5.14,35.86-7.05
					c13.64-2.19,27.53-3.84,41.3-4.91l0.04,0l0,0c0.08,0,0.3-0.01,0.63-0.01c5.97-0.14,12.24-0.18,18.65-0.13
					c8.03,0.06,24.34,0.38,43.36,1.87c14.96,1.15,31.11,3,45.47,5.2c13.4,2.04,23.13,4.01,26.12,4.77h0c0.01,0,0.08,0.01,0.19,0.04
					c2.84,0.53,10.45,2,19.59,4.21c6.1,1.47,12.22,3.11,17.7,4.75c6.2,1.84,11.99,3.81,16.74,5.7L330.46,161.86z"/>
				<path class="st10" d="M30.26,156.84c-0.01,0-0.01,0-0.01,0l0.02-0.03l-0.01-0.03c0.02,0,0.17-0.06,0.41-0.14
					c6.12-2.17,18.62-6.38,33.58-10.26c10.11-2.64,20.5-4.91,30.04-6.57c9.95-1.74,19.5-2.92,26.91-3.3l0.01,0
					c0.03,0,0.1-0.01,0.21-0.01c4.39-0.31,8.68-0.55,11.5-0.69c4.97-0.25,15.03-0.68,26.56-0.71c0.69,0,1.39,0,2.09,0
					c8.88,0,18.14,0.23,26.31,0.66c8.74,0.45,14.94,1.04,17.22,1.42l-0.01,0.06c-2.27-0.38-8.48-0.97-17.21-1.42
					c-8.17-0.43-17.43-0.66-26.31-0.66c-0.7,0-1.39,0-2.09,0c-11.53,0.03-21.59,0.46-26.56,0.71c-2.82,0.14-7.11,0.38-11.5,0.69
					c-0.14,0.01-0.2,0.01-0.23,0.01v0c-7.4,0.39-16.96,1.56-26.9,3.3c-9.54,1.66-19.93,3.93-30.04,6.57
					c-14.96,3.87-27.45,8.09-33.57,10.25C30.35,156.81,30.28,156.84,30.26,156.84z"/>
				<path class="st10" d="M309.73,165.14c-4.13-1.33-12.45-3.69-23.43-6.29c-10.73-2.55-22.95-5.06-34.4-7.05
					c-21.31-3.78-41.09-5.8-44.84-6.16c-0.16-0.02-0.16-0.02-0.17-0.04l0.03-0.01l0-0.03c0.01,0,0.05,0.01,0.14,0.01
					c3.75,0.37,23.53,2.39,44.85,6.16c11.45,1.99,23.67,4.49,34.41,7.05c10.99,2.6,19.31,4.95,23.44,6.29L309.73,165.14z"/>
				<path class="st11" d="M286.15,172.85c-2.01-0.74-9.45-2.69-19.29-4.85c-10.74-2.37-23.58-4.76-35.22-6.55
					c-14.82-2.31-27.72-3.69-34.09-4.31c-5.17-0.5-10.18-0.93-14.88-1.27c-0.44-0.03-0.44-0.03-0.45-0.04l0.02-0.02l0.03,0l-0.03,0
					l0.01-0.03c0.01,0,0.17,0.01,0.42,0.03c4.7,0.34,9.71,0.77,14.88,1.27c6.37,0.62,19.27,2,34.09,4.31
					c11.64,1.79,24.48,4.18,35.23,6.55c9.84,2.16,17.28,4.11,19.3,4.85L286.15,172.85z"/>
			</g>
			<path class="st12" d="M287.36,157.89c-12.05-3.89-24.45-6.74-36.96-8.87c-25.05-4.23-50.54-5.68-76.01-5.29
				c-25.48,0.44-50.98,2.72-76.34,7.14c-12.68,2.23-25.34,5.01-37.95,8.64c-6.3,1.82-12.6,3.86-18.88,6.24
				c-5.68,2.15-11.36,4.57-19.67,8.92l15.04,26.05c6.31-4,11.18-7.36,15.6-9.55c5.23-2.59,10.67-4.98,16.23-7.19
				c11.13-4.43,22.72-8.21,34.48-11.49c23.56-6.54,47.88-11.17,72.43-14.01c24.55-2.79,49.41-3.83,74.17-2.11
				c12.37,0.88,24.72,2.46,36.88,5.11c12.14,2.66,24.14,6.36,35.44,11.83C311.12,166.73,299.39,161.79,287.36,157.89z"/>
			<path class="st13" d="M569.97,176.12c-15.07-9.47-24.31-13.48-36.27-18.05c-12.22-4.67-24.7-8.37-37.29-11.23
				c-25.19-5.72-50.71-8.12-76.01-8.43c-51.05-0.58-101.5,12.14-145.26,36.01c45.79-19.7,96.1-27.19,144.47-22.11
				c24.37,2.57,48.43,7.17,71.26,14.66c22.07,7.22,42.54,17.86,64.86,33.81L569.97,176.12z"/>
		</g>
		<g>
			<polygon class="st0" points="367.85,4.68 340.96,67.89 313.89,4.68 300.92,4.68 339.71,95.08 342.63,95.08 380.69,4.68 			"/>
			<path class="st0" d="M424.17,60.56l-4.19-2.38c-3.18-1.76-5.4-3.26-6.67-4.51c-1.26-1.25-1.9-2.56-1.9-3.93
				c0-1.59,0.7-2.87,2.09-3.84c1.4-0.97,3.23-1.45,5.51-1.45c3.3,0,7.32,1.18,12.04,3.52l5.04-8.73v-0.08
				c-6.1-3.26-12.05-4.9-17.85-4.9c-5.59,0-10.15,1.44-13.69,4.32c-3.54,2.88-5.32,6.59-5.32,11.15c0,3.52,1.17,6.78,3.51,9.76
				c2.34,2.99,7.29,6.58,14.85,10.79c3.78,2.15,6.24,3.79,7.38,4.93c1.14,1.14,1.71,2.57,1.71,4.28c0,1.68-0.88,3.11-2.64,4.32
				c-1.76,1.2-3.87,1.8-6.31,1.8c-2.36,0-5.27-0.72-8.73-2.16c-1.63-0.68-3.25-1.46-4.85-2.34l-5.3,9.17v0.16
				c4.17,2.02,7.62,3.4,10.37,4.16c2.75,0.75,5.89,1.13,9.41,1.13c5.97,0,10.86-1.56,14.66-4.67c3.8-3.11,5.7-7.1,5.7-11.95
				C439,72.33,434.06,66.14,424.17,60.56z"/>
			<rect x="380.42" y="35.42" class="st0" width="11.73" height="59.28"/>
			<path class="st0" d="M386.22,16.51c-1.8,0-3.39,0.7-4.77,2.09c-1.38,1.4-2.06,3-2.06,4.8c0,1.85,0.69,3.47,2.06,4.86
				c1.37,1.4,2.96,2.09,4.77,2.09c1.93,0,3.59-0.69,4.96-2.06c1.37-1.37,2.06-3.01,2.06-4.9c0-1.93-0.69-3.57-2.06-4.9
				C389.81,17.18,388.16,16.51,386.22,16.51z"/>
			<polygon class="st0" points="117.16,38.06 88.21,4.68 68.74,4.68 68.74,94.7 91.16,94.7 91.16,38.51 115.48,66.74 118.84,66.74 
				143.16,38.51 143.16,94.7 165.59,94.7 165.59,4.68 146.09,4.68 			"/>
			<polygon class="st0" points="216.79,33.87 203.05,65.21 190.18,33.87 169.77,33.87 193.56,84.76 175.69,123.89 196.09,123.89 
				236.86,33.87 			"/>
			<path class="st0" d="M292.14,40.97c-6.64-5.59-14.72-8.39-24.26-8.39c-9.84,0-18.03,2.88-24.58,8.64
				c-6.55,5.76-9.83,13.42-9.83,22.96c0,9.37,3.21,17,9.63,22.86c6.42,5.87,14.68,8.81,24.78,8.81c9.32,0,17.35-2.75,24.1-8.26
				c6.74-5.5,10.12-13.27,10.12-23.29C302.1,54.35,298.78,46.56,292.14,40.97z M267.88,84.52c-9.32,0-13.98-6.78-13.98-20.33
				c0-6.5,1.24-11.49,3.71-14.97c2.47-3.49,5.9-5.23,10.28-5.23c9.15,0,13.72,6.6,13.72,19.81
				C281.61,77.62,277.03,84.52,267.88,84.52z"/>
			<path class="st0" d="M528.72,86.06c-1.5,0.82-2.7,1.23-3.58,1.23c-1.37,0-2.06-1.01-2.06-3.03V59.07c0-4.98-0.14-8.37-0.42-10.15
				c-0.28-1.78-0.93-3.56-1.97-5.35c-1.03-1.78-2.19-3.21-3.48-4.28c-3.87-3.35-9-5.03-15.4-5.03c-8.55,0-15.1,2.68-19.65,8.05v0.05
				l4.78,8.27c4.54-3.61,9.18-5.43,13.91-5.43c7.13,0,10.7,3.57,10.7,10.7v3.16l-15.01,5.15c-4.94,1.72-8.75,4.05-11.44,6.99
				c-2.69,2.94-4.03,6.28-4.03,10.02c0,4.12,1.37,7.55,4.12,10.28c2.75,2.73,6.19,4.09,10.31,4.09c5.63,0,10.93-1.93,15.91-5.8
				c0.9,3.95,3.87,5.93,8.89,5.93c1.76,0,3.45-0.31,5.06-0.93c1.61-0.62,3.73-1.79,6.38-3.49L528.72,86.06z M511.55,82.97
				c-3.18,3.05-6.64,4.57-10.37,4.57c-2.49,0-4.52-0.77-6.09-2.32c-1.57-1.55-2.35-3.54-2.35-5.99c0-2.41,0.83-4.41,2.48-6.02
				c1.65-1.61,4.48-3.21,8.47-4.8l7.86-3.03V82.97z"/>
			<path class="st0" d="M466.17,85.16c-5.63,0-8.44-3.39-8.44-10.16V48.65h12.47l5.72-9.9h-18.18V23.18l-0.01,0.01v-0.04h-4.68
				l-14.73,25.51h7.69v23.62c0,5.37,0.25,9.01,0.74,10.92c0.49,1.91,1.11,3.46,1.84,4.64c0.73,1.18,1.65,2.25,2.77,3.19
				c3.56,3.14,8.03,4.7,13.4,4.7c5.1,0,9.83-1.18,14.18-3.5l-4.95-8.58C471.3,84.65,468.69,85.16,466.17,85.16z"/>
		</g>
	</g>
	<g>
		<path class="st0" d="M531.72,28.58c0,2.67-2.15,4.8-4.88,4.8c-2.73,0-4.91-2.12-4.91-4.8s2.18-4.77,4.94-4.77
			C529.57,23.81,531.72,25.91,531.72,28.58z M523.15,28.58c0,2.12,1.6,3.81,3.72,3.81c2.06,0.03,3.63-1.69,3.63-3.78
			c0-2.12-1.57-3.84-3.69-3.84C524.75,24.77,523.15,26.49,523.15,28.58z M526.08,31.05h-1.11v-4.77c0.44-0.06,1.05-0.15,1.83-0.15
			c0.9,0,1.31,0.15,1.63,0.38c0.29,0.2,0.49,0.55,0.49,1.02c0,0.58-0.44,0.96-0.99,1.13v0.06c0.46,0.15,0.7,0.52,0.84,1.16
			c0.15,0.73,0.26,0.99,0.35,1.16h-1.16c-0.15-0.17-0.23-0.58-0.38-1.16c-0.09-0.49-0.38-0.73-0.99-0.73h-0.52V31.05z M526.11,28.38
			h0.52c0.61,0,1.11-0.2,1.11-0.7c0-0.44-0.32-0.73-1.02-0.73c-0.29,0-0.49,0.03-0.61,0.06V28.38z"/>
	</g>
</g>
<g>
</g>
<g>
</g>
<g>
</g>
<g>
</g>
<g>
</g>
<g>
</g>
</svg>
