<svg data-v-0dd9719b="" version="1.0" xmlns="http://www.w3.org/2000/svg" xmlns:xlink="http://www.w3.org/1999/xlink" width="100%" height="100%" viewBox="0 0 340.000000 250.000000" preserveAspectRatio="xMidYMid meet" color-interpolation-filters="sRGB" style="margin: auto;">   <g data-v-0dd9719b="" fill="#feffff" class="linesvg" transform="translate(56.660003662109375,87.32999801635742)"><line stroke="#feffff" stroke-width="2" x1="0" y1="0" x2="45.131400465723175" y2="15"></line> <line stroke="#feffff" stroke-width="2" x1="226.67999267578125" y1="0" x2="181.54859221005808" y2="15"></line> <line stroke="#feffff" stroke-width="2" x1="0" y1="75.34000396728516" x2="45.131400465723175" y2="60.340003967285156"></line> <line stroke="#feffff" stroke-width="2" x1="226.67999267578125" y1="75.34000396728516" x2="181.54859221005808" y2="60.340003967285156"></line> <g fill="#feffff" transform="translate(0,20)"><g data-gra="path-name" fill-rule="" class="tp-name"><g transform="scale(1)"><g><path d="M11.35-29.42L11.35 0 15.56 0 15.56-29.42 25.51-29.42 25.51-32.94 1.41-32.94 1.41-29.42ZM33.14-29.42C33.94-29.42 34.62-29.67 35.17-30.17 35.72-30.68 36-31.31 36-32.08 36-32.89 35.72-33.53 35.17-34.02 34.62-34.5 33.94-34.74 33.14-34.74 32.33-34.74 31.66-34.5 31.1-34.02 30.55-33.53 30.28-32.89 30.28-32.08 30.28-31.31 30.55-30.68 31.1-30.17 31.66-29.67 32.33-29.42 33.14-29.42ZM31.03-24.4L31.03 0 35.15 0 35.15-24.4ZM41.57-12.15C41.57-10.14 41.86-8.34 42.45-6.75 43.04-5.16 43.84-3.82 44.86-2.74 45.88-1.65 47.09-0.82 48.5-0.25 49.91 0.32 51.41 0.6 53.02 0.6 54.49 0.6 55.91 0.32 57.26-0.25 58.62-0.82 59.85-1.59 60.95-2.56L59.09-5.27C58.36-4.6 57.51-4.02 56.56-3.54 55.6-3.05 54.54-2.81 53.37-2.81 52.27-2.81 51.24-3.04 50.31-3.49 49.37-3.94 48.58-4.58 47.92-5.4 47.27-6.22 46.76-7.2 46.39-8.33 46.02-9.47 45.84-10.74 45.84-12.15 45.84-13.56 46.03-14.84 46.42-15.99 46.8-17.15 47.33-18.14 48-18.98 48.67-19.82 49.47-20.46 50.41-20.91 51.35-21.36 52.37-21.59 53.47-21.59 54.44-21.59 55.32-21.39 56.11-20.99 56.89-20.59 57.65-20.07 58.39-19.43L60.45-22.09C59.61-22.86 58.62-23.54 57.46-24.12 56.31-24.71 54.93-25 53.32-25 51.75-25 50.25-24.72 48.83-24.15 47.4-23.58 46.16-22.74 45.09-21.64 44.02-20.53 43.16-19.19 42.53-17.6 41.89-16.01 41.57-14.19 41.57-12.15ZM83.65-29.42L83.65 0 87.86 0 87.86-29.42 97.8-29.42 97.8-32.94 73.7-32.94 73.7-29.42ZM98.46-6.33C98.46-4.12 99.13-2.41 100.49-1.2 101.85 0 103.56 0.6 105.64 0.6 107.14 0.6 108.57 0.26 109.93-0.43 111.28-1.11 112.55-1.94 113.72-2.91L113.82-2.91 114.17 0 117.59 0 117.59-14.96C117.59-18.01 116.92-20.44 115.58-22.27 114.24-24.09 112.08-25 109.1-25 107.13-25 105.32-24.66 103.68-23.97 102.04-23.29 100.65-22.58 99.51-21.84L101.17-18.98C102.14-19.65 103.23-20.25 104.46-20.79 105.68-21.32 107.01-21.59 108.45-21.59 109.45-21.59 110.27-21.41 110.91-21.06 111.54-20.71 112.05-20.25 112.44-19.68 112.82-19.11 113.09-18.46 113.24-17.72 113.39-16.99 113.47-16.23 113.47-15.46 108.25-14.89 104.44-13.9 102.05-12.48 99.65-11.05 98.46-9 98.46-6.33ZM102.52-6.63C102.52-7.4 102.71-8.11 103.08-8.76 103.44-9.41 104.05-9.99 104.91-10.49 105.76-11 106.89-11.43 108.3-11.8 109.7-12.17 111.43-12.48 113.47-12.75L113.47-5.97C112.3-4.9 111.18-4.09 110.13-3.54 109.08-2.99 107.96-2.71 106.79-2.71 105.59-2.71 104.57-3.01 103.75-3.61 102.93-4.22 102.52-5.22 102.52-6.63ZM123.56-12.15C123.56-10.14 123.85-8.34 124.44-6.75 125.02-5.16 125.83-3.82 126.85-2.74 127.87-1.65 129.08-0.82 130.49-0.25 131.89 0.32 133.4 0.6 135.01 0.6 136.48 0.6 137.89 0.32 139.25-0.25 140.61-0.82 141.84-1.59 142.94-2.56L141.08-5.27C140.35-4.6 139.5-4.02 138.55-3.54 137.59-3.05 136.53-2.81 135.36-2.81 134.25-2.81 133.23-3.04 132.3-3.49 131.36-3.94 130.56-4.58 129.91-5.4 129.26-6.22 128.75-7.2 128.38-8.33 128.01-9.47 127.83-10.74 127.83-12.15 127.83-13.56 128.02-14.84 128.41-15.99 128.79-17.15 129.32-18.14 129.99-18.98 130.66-19.82 131.46-20.46 132.4-20.91 133.33-21.36 134.35-21.59 135.46-21.59 136.43-21.59 137.31-21.39 138.1-20.99 138.88-20.59 139.64-20.07 140.38-19.43L142.44-22.09C141.6-22.86 140.61-23.54 139.45-24.12 138.3-24.71 136.92-25 135.31-25 133.74-25 132.24-24.72 130.82-24.15 129.39-23.58 128.15-22.74 127.07-21.64 126-20.53 125.15-19.19 124.51-17.6 123.88-16.01 123.56-14.19 123.56-12.15ZM165.63-29.42L165.63 0 169.85 0 169.85-29.42 179.79-29.42 179.79-32.94 155.69-32.94 155.69-29.42ZM180.19-12.15C180.19-10.14 180.5-8.34 181.12-6.75 181.74-5.16 182.57-3.82 183.61-2.74 184.65-1.65 185.84-0.82 187.2-0.25 188.55 0.32 189.98 0.6 191.49 0.6 193 0.6 194.43 0.32 195.78-0.25 197.14-0.82 198.34-1.65 199.37-2.74 200.41-3.82 201.24-5.16 201.86-6.75 202.48-8.34 202.79-10.14 202.79-12.15 202.79-14.19 202.48-16.01 201.86-17.6 201.24-19.19 200.41-20.53 199.37-21.64 198.34-22.74 197.14-23.58 195.78-24.15 194.43-24.72 193-25 191.49-25 189.98-25 188.55-24.72 187.2-24.15 185.84-23.58 184.65-22.74 183.61-21.64 182.57-20.53 181.74-19.19 181.12-17.6 180.5-16.01 180.19-14.19 180.19-12.15ZM184.46-12.15C184.46-13.56 184.63-14.84 184.96-15.99 185.3-17.15 185.78-18.14 186.39-18.98 187.01-19.82 187.76-20.46 188.63-20.91 189.5-21.36 190.45-21.59 191.49-21.59 192.53-21.59 193.48-21.36 194.35-20.91 195.22-20.46 195.97-19.82 196.59-18.98 197.21-18.14 197.68-17.15 198.02-15.99 198.35-14.84 198.52-13.56 198.52-12.15 198.52-10.74 198.35-9.47 198.02-8.33 197.68-7.2 197.21-6.22 196.59-5.4 195.97-4.58 195.22-3.94 194.35-3.49 193.48-3.04 192.53-2.81 191.49-2.81 190.45-2.81 189.5-3.04 188.63-3.49 187.76-3.94 187.01-4.58 186.39-5.4 185.78-6.22 185.3-7.2 184.96-8.33 184.63-9.47 184.46-10.74 184.46-12.15ZM207.41-12.15C207.41-10.14 207.71-8.35 208.31-6.78 208.91-5.2 209.74-3.87 210.8-2.79 211.85-1.7 213.09-0.86 214.51-0.28 215.93 0.31 217.46 0.6 219.1 0.6 220.78 0.6 222.27 0.35 223.57-0.15 224.88-0.65 226.07-1.24 227.14-1.91L225.68-4.62C224.78-4.05 223.83-3.59 222.85-3.24 221.86-2.89 220.78-2.71 219.61-2.71 217.26-2.71 215.36-3.48 213.91-5.02 212.45-6.56 211.64-8.65 211.47-11.3L227.94-11.3C228.04-11.9 228.09-12.65 228.09-13.56 228.09-15.3 227.87-16.87 227.44-18.28 227-19.68 226.38-20.89 225.56-21.89 224.74-22.89 223.72-23.66 222.49-24.2 221.27-24.74 219.89-25 218.35-25 216.95-25 215.59-24.71 214.29-24.12 212.98-23.54 211.82-22.69 210.8-21.59 209.77-20.48 208.95-19.14 208.34-17.55 207.72-15.96 207.41-14.16 207.41-12.15ZM224.48-14.01L211.42-14.01C211.56-15.25 211.83-16.34 212.25-17.3 212.67-18.25 213.2-19.05 213.83-19.71 214.47-20.36 215.18-20.86 215.97-21.21 216.75-21.56 217.58-21.74 218.45-21.74 220.36-21.74 221.84-21.08 222.9-19.76 223.95-18.43 224.48-16.52 224.48-14.01Z" transform="translate(-1.409999966621399, 34.7400016784668)"></path></g></g></g> </g></g><defs v-gra="od"></defs></svg>